# 3ds Max Wavefront OBJ Exporter v0.97b - (c)2007 guruware
# File Created: 05.01.2017 16:46:22

mtllib zhanguidiban.mtl

#
# object Line009
#

v  -3.8468 0.7371 -10.9601
v  -3.8468 0.7371 -10.2612
v  -0.6430 0.7371 -10.2612
v  -0.6430 0.7371 -10.9601
# 4 vertices

vn 0.0000 1.0000 -0.0000
# 1 vertex normals

g Line009
usemtl wire_135110008
s 1
f 1//1 2//1 3//1 4//1 
# 1 polygons

#
# object Line010
#

v  0.0311 0.7371 -10.9601
v  0.0311 0.7371 -10.2612
v  3.2349 0.7371 -10.2612
v  3.2349 0.7371 -10.9601
# 4 vertices

vn 0.0000 1.0000 -0.0000
# 1 vertex normals

g Line010
usemtl wire_177027088
s 1
f 5//2 6//2 7//2 8//2 
# 1 polygons

#
# object Line011
#

v  4.6385 0.6930 -10.1507
v  3.6496 0.6930 -10.1507
v  3.6496 0.6930 -6.9468
v  4.6385 0.6930 -6.9468
# 4 vertices

vn 0.0000 1.0000 -0.0000
# 1 vertex normals

g Line011
usemtl wire_154215229
s 1
f 9//3 10//3 11//3 12//3 
# 1 polygons

#
# object Line012
#

v  4.6385 0.6930 -6.2204
v  3.6496 0.6930 -6.2204
v  3.6496 0.6930 -3.0166
v  4.6385 0.6930 -3.0166
# 4 vertices

vn 0.0000 1.0000 -0.0000
# 1 vertex normals

g Line012
usemtl wire_087225198
s 1
f 13//4 14//4 15//4 16//4 
# 1 polygons

#
# object Line013
#

v  4.6385 0.6930 -2.4261
v  3.6496 0.6930 -2.4261
v  3.6496 0.6930 0.7777
v  4.6385 0.6930 0.7777
# 4 vertices

vn 0.0000 1.0000 -0.0000
# 1 vertex normals

g Line013
usemtl wire_145028177
s 1
f 17//5 18//5 19//5 20//5 
# 1 polygons

#
# object Line014
#

v  3.1819 0.6930 2.1459
v  3.1819 0.6930 1.1570
v  -0.4138 0.6930 1.1570
v  -0.4138 0.6930 2.1459
# 4 vertices

vn 0.0000 1.0000 -0.0000
# 1 vertex normals

g Line014
usemtl wire_177028149
s 1
f 21//6 22//6 23//6 24//6 
# 1 polygons

#
# object Line015
#

v  -4.8339 0.7163 -0.4390
v  -4.3538 0.7163 -0.4390
v  -4.3538 0.7163 -4.0347
v  -4.8339 0.7163 -4.0347
# 4 vertices

vn 0.0000 1.0000 -0.0000
# 1 vertex normals

g Line015
usemtl wire_135110008
s 1
f 25//7 26//7 27//7 28//7 
# 1 polygons

#
# object Line016
#

v  -4.8339 0.7163 -4.7251
v  -4.3538 0.7163 -4.7251
v  -4.3538 0.7163 -8.3208
v  -4.8339 0.7163 -8.3208
# 4 vertices

vn 0.0000 1.0000 -0.0000
# 1 vertex normals

g Line016
usemtl wire_027177148
s 1
f 29//8 30//8 31//8 32//8 
# 1 polygons

