# 3ds Max Wavefront OBJ Exporter v0.97b - (c)2007 guruware
# File Created: 07.02.2017 21:10:46

mtllib zhanpai2.mtl

#
# object headusOBJexport
#

v  0.7739 0.4097 0.0201
v  0.7739 -0.4097 0.0201
v  0.8213 -0.4518 0.0201
v  0.8213 0.4518 0.0201
v  -0.7737 0.4097 0.0201
v  -0.8212 0.4518 0.0201
v  -0.7737 -0.4097 0.0201
v  -0.8212 -0.4518 0.0201
v  0.8361 -0.4651 -0.0201
v  0.8361 0.4651 -0.0201
v  0.8361 0.4651 0.0034
v  0.8361 -0.4651 0.0034
v  -0.8361 0.4651 -0.0201
v  -0.8361 0.4651 0.0034
v  -0.8361 -0.4651 -0.0201
v  -0.8361 -0.4651 0.0034
v  0.7589 0.3964 -0.0201
v  0.7589 -0.3964 -0.0201
v  0.7589 -0.3964 0.0034
v  0.7589 0.3964 0.0034
v  -0.7588 -0.3964 -0.0201
v  -0.7588 -0.3964 0.0034
v  -0.7588 0.3964 -0.0201
v  -0.7588 0.3964 0.0034
v  0.7627 -0.3997 0.0160
v  0.7627 0.3997 0.0160
v  -0.7625 -0.3997 0.0160
v  -0.7625 0.3997 0.0160
v  0.8325 0.4618 0.0160
v  0.8325 -0.4618 0.0160
v  -0.8324 0.4618 0.0160
v  -0.8324 -0.4618 0.0160
# 32 vertices

vn -0.0480 -0.0465 0.9978
vn -0.0480 0.0465 0.9978
vn 0.1296 -0.1497 0.9802
vn 0.1296 0.1497 0.9802
vn 0.0480 -0.0465 0.9978
vn -0.1296 0.1497 0.9802
vn 0.0480 0.0465 0.9978
vn -0.1296 -0.1497 0.9802
vn 0.5774 -0.5774 -0.5774
vn 0.5774 0.5774 -0.5774
vn 0.6989 0.6942 0.1724
vn 0.6989 -0.6942 0.1724
vn -0.5774 0.5774 -0.5773
vn -0.6989 0.6942 0.1724
vn -0.5774 -0.5774 -0.5774
vn -0.6989 -0.6942 0.1724
vn -0.3015 -0.3015 -0.9045
vn -0.3015 0.3015 -0.9045
vn -0.6862 0.6976 0.2061
vn -0.6862 -0.6976 0.2061
vn 0.3015 0.3015 -0.9045
vn 0.6878 0.6969 0.2034
vn 0.3015 -0.3015 -0.9045
vn 0.6878 -0.6969 0.2034
vn -0.3505 0.3671 0.8616
vn -0.3505 -0.3671 0.8616
vn 0.3511 0.3685 0.8608
vn 0.3511 -0.3685 0.8608
vn 0.5312 0.5403 0.6525
vn 0.5312 -0.5403 0.6525
vn -0.5312 0.5403 0.6525
vn -0.5312 -0.5403 0.6525
# 32 vertex normals

vt 1.0233 0.3790 0.0000
vt -0.3639 0.3585 0.0000
vt -0.4343 0.2548 0.0000
vt 1.0955 0.2776 0.0000
vt -0.9259 0.6859 0.0000
vt 1.6942 0.6463 0.0000
vt 1.7753 0.7366 0.0000
vt -1.0055 0.7777 0.0000
vt -0.3558 0.5926 0.0000
vt 1.0303 0.6701 0.0000
vt 1.0980 0.7768 0.0000
vt -0.4305 0.6911 0.0000
vt 1.6931 0.4159 0.0000
vt -0.9271 0.3776 0.0000
vt -1.0067 0.2853 0.0000
vt 1.7741 0.3259 0.0000
vt -0.4558 0.1490 0.0000
vt 1.1190 0.1732 0.0000
vt 1.1186 0.2240 0.0000
vt -0.4563 0.1999 0.0000
vt 1.8015 0.8394 0.0000
vt -1.0298 0.8797 0.0000
vt -1.0303 0.8290 0.0000
vt 1.8010 0.7884 0.0000
vt 1.1168 0.8836 0.0000
vt -0.4566 0.7943 0.0000
vt -0.4548 0.7436 0.0000
vt 1.1186 0.8327 0.0000
vt -1.0310 0.1828 0.0000
vt 1.8003 0.2236 0.0000
vt 1.7998 0.2747 0.0000
vt -1.0315 0.2334 0.0000
vt 0.9999 0.4835 0.0000
vt -0.3424 0.4642 0.0000
vt -0.3419 0.4133 0.0000
vt 1.0003 0.4327 0.0000
vt 1.6667 0.5178 0.0000
vt -0.9028 0.4805 0.0000
vt -0.9023 0.4295 0.0000
vt 1.6672 0.4671 0.0000
vt -0.3297 0.4890 0.0000
vt 1.0114 0.5637 0.0000
vt 1.0096 0.6145 0.0000
vt -0.3314 0.5398 0.0000
vt -0.9016 0.5836 0.0000
vt 1.6679 0.5437 0.0000
vt 1.6683 0.5946 0.0000
vt -0.9012 0.6344 0.0000
vt -0.8977 1.0264 0.0000
vt 1.6719 0.9900 0.0000
vt -0.3462 0.9680 0.0000
vt 0.9948 1.0441 0.0000
vt 1.6707 0.0730 0.0000
vt -0.8988 0.0362 0.0000
vt 1.0043 0.0042 0.0000
vt -0.3379 -0.0165 0.0000
vt -0.3472 0.3847 0.0000
vt 1.0062 0.4044 0.0000
vt -0.9083 0.4011 0.0000
vt 1.6739 0.4391 0.0000
vt 1.0143 0.6433 0.0000
vt -0.3380 0.5678 0.0000
vt 1.6750 0.6228 0.0000
vt -0.9072 0.6625 0.0000
vt 1.1127 0.2522 0.0000
vt -0.4510 0.2286 0.0000
vt -1.0242 0.8010 0.0000
vt 1.7945 0.7601 0.0000
vt -0.4483 0.7157 0.0000
vt 1.1140 0.8038 0.0000
vt 1.7933 0.3029 0.0000
vt -1.0254 0.2616 0.0000
# 72 texture coords

g headusOBJexport
usemtl Material__24
s 1
f 1/1/1 2/2/2 3/3/3 
f 3/3/3 4/4/4 1/1/1 
f 5/5/5 1/6/1 4/7/4 
f 4/7/4 6/8/6 5/5/5 
f 7/9/7 5/10/5 6/11/6 
f 6/11/6 8/12/8 7/9/7 
f 2/13/2 7/14/7 8/15/8 
f 8/15/8 3/16/3 2/13/2 
f 9/17/9 10/18/10 11/19/11 
f 11/19/11 12/20/12 9/17/9 
f 10/21/10 13/22/13 14/23/14 
f 14/23/14 11/24/11 10/21/10 
f 13/25/13 15/26/15 16/27/16 
f 16/27/16 14/28/14 13/25/13 
f 15/29/15 9/30/9 12/31/12 
f 12/31/12 16/32/16 15/29/15 
f 17/33/17 18/34/18 19/35/19 
f 19/35/19 20/36/20 17/33/17 
f 18/37/18 21/38/21 22/39/22 
f 22/39/22 19/40/19 18/37/18 
f 21/41/21 23/42/23 24/43/24 
f 24/43/24 22/44/22 21/41/21 
f 23/45/23 17/46/17 20/47/20 
f 20/47/20 24/48/24 23/45/23 
f 23/49/23 13/22/13 10/21/10 
f 10/21/10 17/50/17 23/49/23 
f 21/51/21 15/26/15 13/25/13 
f 13/25/13 23/52/23 21/51/21 
f 18/53/18 9/30/9 15/29/15 
f 15/29/15 21/54/21 18/53/18 
f 17/55/17 10/18/10 9/17/9 
f 9/17/9 18/56/18 17/55/17 
f 25/57/25 2/2/2 1/1/1 
f 1/1/1 26/58/26 25/57/25 
f 27/59/27 7/14/7 2/13/2 
f 2/13/2 25/60/25 27/59/27 
f 28/61/28 5/10/5 7/9/7 
f 7/9/7 27/62/27 28/61/28 
f 26/63/26 1/6/1 5/5/5 
f 5/5/5 28/64/28 26/63/26 
f 19/35/19 25/57/25 26/58/26 
f 26/58/26 20/36/20 19/35/19 
f 22/39/22 27/59/27 25/60/25 
f 25/60/25 19/40/19 22/39/22 
f 24/43/24 28/61/28 27/62/27 
f 27/62/27 22/44/22 24/43/24 
f 20/47/20 26/63/26 28/64/28 
f 28/64/28 24/48/24 20/47/20 
f 29/65/29 4/4/4 3/3/3 
f 3/3/3 30/66/30 29/65/29 
f 31/67/31 6/8/6 4/7/4 
f 4/7/4 29/68/29 31/67/31 
f 32/69/32 8/12/8 6/11/6 
f 6/11/6 31/70/31 32/69/32 
f 30/71/30 3/16/3 8/15/8 
f 8/15/8 32/72/32 30/71/30 
f 11/19/11 29/65/29 30/66/30 
f 30/66/30 12/20/12 11/19/11 
f 14/23/14 31/67/31 29/68/29 
f 29/68/29 11/24/11 14/23/14 
f 16/27/16 32/69/32 31/70/31 
f 31/70/31 14/28/14 16/27/16 
f 12/31/12 30/71/30 32/72/32 
f 32/72/32 16/32/16 12/31/12 
# 64 faces

#
# object Plane001
#

v  -0.7588 0.3964 0.0034
v  -0.7588 -0.3964 0.0034
v  0.7589 0.3964 0.0034
v  0.7589 -0.3964 0.0034
# 4 vertices

vn 0.0000 -0.0000 1.0000
# 1 vertex normals

vt 0.0000 1.0000 0.0000
vt 0.0000 0.0000 0.0000
vt 1.0000 1.0000 0.0000
vt 1.0000 0.0000 0.0000
# 4 texture coords

g Plane001
usemtl plane
s 1
f 33/73/33 34/74/33 35/75/33 
f 36/76/33 35/75/33 34/74/33 
# 2 faces

