# 3ds Max Wavefront OBJ Exporter v0.97b - (c)2007 guruware
# File Created: 06.03.2017 16:15:19

mtllib zhangui003.mtl

#
# object 3
#

v  0.2955 0.6453 -1.1913
v  0.2955 0.0000 -1.1913
v  -0.2956 0.0000 -1.1913
v  -0.2956 0.6453 -1.1913
v  -0.2956 0.6768 -1.1849
v  0.2955 0.6768 -1.1849
v  0.2955 0.7026 -1.1675
v  -0.2956 0.7026 -1.1675
v  0.2955 0.7200 -1.1417
v  -0.2956 0.7200 -1.1417
v  0.2955 0.7264 -1.1101
v  -0.2956 0.7264 -1.1101
v  0.2956 0.7264 -0.0894
v  -0.2955 0.7264 -0.0894
v  0.2956 0.7200 -0.0578
v  -0.2955 0.7200 -0.0578
v  0.2956 0.7026 -0.0320
v  -0.2955 0.7026 -0.0320
v  -0.2955 0.6768 -0.0146
v  0.2956 0.6768 -0.0146
v  -0.2955 0.6453 -0.0082
v  0.2956 0.6453 -0.0082
v  -0.2955 0.0000 -0.0082
v  0.2956 0.0000 -0.0082
v  -0.1316 0.6686 -0.0585
v  -0.0775 0.6686 -0.0585
v  -0.2955 0.0000 -0.0585
v  -0.2955 0.6686 -0.0585
v  0.2956 0.0000 -0.0585
v  0.2956 0.6686 -0.0585
v  -0.1317 0.5428 -1.1410
v  -0.0776 0.5428 -1.1410
v  -0.0775 0.5428 -0.0585
v  -0.1316 0.5428 -0.0585
v  -0.2956 0.0000 -1.1410
v  0.2955 0.0000 -1.1410
v  -0.1317 0.6686 -1.1410
v  -0.2956 0.6686 -1.1410
v  -0.0776 0.6686 -1.1410
v  0.2955 0.6686 -1.1410
# 40 vertices

vn -0.0000 0.0998 -0.9950
vn -0.0000 0.0000 -1.0000
vn -0.0000 0.3865 -0.9223
vn -0.0000 0.7071 -0.7071
vn -0.0000 0.9223 -0.3865
vn -0.0000 0.9950 -0.0998
vn 0.0000 0.9950 0.0998
vn 0.0000 0.9223 0.3865
vn 0.0000 0.7071 0.7071
vn 0.0000 0.3865 0.9223
vn 0.0000 0.0998 0.9950
vn 0.0000 0.0000 1.0000
vn 0.0000 -1.0000 -0.0000
vn -1.0000 0.0000 0.0000
vn 1.0000 0.0000 -0.0000
# 15 vertex normals

vt 0.6954 0.5106 0.0000
vt 0.4620 0.5106 0.0000
vt 0.4620 0.2968 0.0000
vt 0.6954 0.2968 0.0000
vt 0.7068 0.2968 0.0000
vt 0.7068 0.5106 0.0000
vt 0.7161 0.5106 0.0000
vt 0.7161 0.2968 0.0000
vt 0.4713 0.2238 0.0000
vt 0.4620 0.2238 0.0000
vt 0.4620 0.0100 0.0000
vt 0.4713 0.0100 0.0000
vt 0.4827 0.2238 0.0000
vt 0.4827 0.0100 0.0000
vt 0.8519 0.2238 0.0000
vt 0.8519 0.0100 0.0000
vt 0.8633 0.2238 0.0000
vt 0.8633 0.0100 0.0000
vt 0.8727 0.2238 0.0000
vt 0.8727 0.0100 0.0000
vt 0.2641 0.5836 0.0000
vt 0.2641 0.7974 0.0000
vt 0.2548 0.7974 0.0000
vt 0.2548 0.5836 0.0000
vt 0.2434 0.7974 0.0000
vt 0.2434 0.5836 0.0000
vt 0.0100 0.7974 0.0000
vt 0.0100 0.5836 0.0000
vt 0.9900 0.3561 0.0000
vt 0.9900 0.3756 0.0000
vt 0.7482 0.2968 0.0000
vt 0.9900 0.2968 0.0000
vt 0.7482 0.5106 0.0000
vt 0.9900 0.5106 0.0000
vt 0.4620 0.2674 0.0000
vt 0.4620 0.2479 0.0000
vt 0.8535 0.2479 0.0000
vt 0.8535 0.2674 0.0000
vt 0.2962 0.9564 0.0000
vt 0.2962 0.7426 0.0000
vt 0.5380 0.8971 0.0000
vt 0.5380 0.9564 0.0000
vt 0.5380 0.8775 0.0000
vt 0.5380 0.7426 0.0000
vt 0.0282 0.5595 0.0000
vt 0.0100 0.5595 0.0000
vt 0.0100 0.3261 0.0000
vt 0.0282 0.3177 0.0000
vt 0.0123 0.3147 0.0000
vt 0.0186 0.3054 0.0000
vt 0.0279 0.2991 0.0000
vt 0.0394 0.2968 0.0000
vt 0.4085 0.2968 0.0000
vt 0.4200 0.2991 0.0000
vt 0.4293 0.3054 0.0000
vt 0.4197 0.3177 0.0000
vt 0.4356 0.3147 0.0000
vt 0.4379 0.3261 0.0000
vt 0.4197 0.5595 0.0000
vt 0.4379 0.5595 0.0000
vt 0.0100 0.0393 0.0000
vt 0.0282 0.0309 0.0000
vt 0.0282 0.2727 0.0000
vt 0.0100 0.2727 0.0000
vt 0.0123 0.0279 0.0000
vt 0.0186 0.0186 0.0000
vt 0.0279 0.0123 0.0000
vt 0.4197 0.0309 0.0000
vt 0.4379 0.0393 0.0000
vt 0.4379 0.2727 0.0000
vt 0.4197 0.2727 0.0000
vt 0.4356 0.0279 0.0000
vt 0.4293 0.0186 0.0000
vt 0.4085 0.0100 0.0000
vt 0.4200 0.0123 0.0000
vt 0.0394 0.0100 0.0000
vt 0.6877 0.5836 0.0000
vt 0.6877 0.7185 0.0000
vt 0.2962 0.7185 0.0000
vt 0.2962 0.5836 0.0000
vt 0.9616 0.8019 0.0000
vt 0.5701 0.8019 0.0000
vt 0.5701 0.7426 0.0000
vt 0.9616 0.7426 0.0000
vt 0.9616 0.8955 0.0000
vt 0.9616 0.9410 0.0000
vt 0.5701 0.9410 0.0000
vt 0.5701 0.8955 0.0000
vt 0.9616 0.8715 0.0000
vt 0.5701 0.8715 0.0000
vt 0.5701 0.8260 0.0000
vt 0.9616 0.8260 0.0000
# 92 texture coords

g 3
usemtl ____WC01
s off
f 1/1/1 2/2/2 3/3/2 
f 3/3/2 4/4/1 1/1/1 
f 1/1/1 4/4/1 5/5/3 
f 5/5/3 6/6/3 1/1/1 
f 7/7/4 6/6/3 5/5/3 
f 5/5/3 8/8/4 7/7/4 
f 9/9/5 7/10/4 8/11/4 
f 8/11/4 10/12/5 9/9/5 
f 11/13/6 9/9/5 10/12/5 
f 10/12/5 12/14/6 11/13/6 
f 13/15/7 11/13/6 12/14/6 
f 12/14/6 14/16/7 13/15/7 
f 15/17/8 13/15/7 14/16/7 
f 14/16/7 16/18/8 15/17/8 
f 17/19/9 15/17/8 16/18/8 
f 16/18/8 18/20/9 17/19/9 
f 17/21/9 18/22/9 19/23/10 
f 19/23/10 20/24/10 17/21/9 
f 20/24/10 19/23/10 21/25/11 
f 21/25/11 22/26/11 20/24/10 
f 22/26/11 21/25/11 23/27/12 
f 23/27/12 24/28/12 22/26/11 
f 25/29/2 26/30/2 27/31/2 
f 27/31/2 28/32/2 25/29/2 
f 29/33/2 27/31/2 26/30/2 
f 26/30/2 30/34/2 29/33/2 
f 31/35/13 32/36/13 33/37/13 
f 33/37/13 34/38/13 31/35/13 
f 35/39/12 36/40/12 37/41/12 
f 37/41/12 38/42/12 35/39/12 
f 39/43/12 37/41/12 36/40/12 
f 36/40/12 40/44/12 39/43/12 
f 27/45/14 23/46/14 21/47/14 
f 21/47/14 28/48/14 27/45/14 
f 28/48/14 21/47/14 19/49/14 
f 19/49/14 18/50/14 28/48/14 
f 16/51/14 14/52/14 28/48/14 
f 28/48/14 18/50/14 16/51/14 
f 12/53/14 10/54/14 28/48/14 
f 28/48/14 14/52/14 12/53/14 
f 10/54/14 8/55/14 38/56/14 
f 38/56/14 28/48/14 10/54/14 
f 38/56/14 8/55/14 5/57/14 
f 5/57/14 4/58/14 38/56/14 
f 35/59/14 38/56/14 4/58/14 
f 4/58/14 3/60/14 35/59/14 
f 1/61/15 40/62/15 36/63/15 
f 36/63/15 2/64/15 1/61/15 
f 40/62/15 1/61/15 6/65/15 
f 6/65/15 7/66/15 40/62/15 
f 40/62/15 7/66/15 9/67/15 
f 9/67/15 30/68/15 40/62/15 
f 22/69/15 24/70/15 29/71/15 
f 29/71/15 30/68/15 22/69/15 
f 20/72/15 22/69/15 30/68/15 
f 30/68/15 17/73/15 20/72/15 
f 30/68/15 13/74/15 15/75/15 
f 15/75/15 17/73/15 30/68/15 
f 30/68/15 9/67/15 11/76/15 
f 11/76/15 13/74/15 30/68/15 
f 30/77/13 26/78/13 39/79/13 
f 39/79/13 40/80/13 30/77/13 
f 28/81/13 38/82/13 37/83/13 
f 37/83/13 25/84/13 28/81/13 
f 37/85/14 31/86/14 34/87/14 
f 34/87/14 25/88/14 37/85/14 
f 33/89/15 32/90/15 39/91/15 
f 39/91/15 26/92/15 33/89/15 
# 68 faces

