# 3ds Max Wavefront OBJ Exporter v0.97b - (c)2007 guruware
# File Created: 12.12.2016 10:23:56

mtllib huakuang005.mtl

#
# object LeftBottom
#

v  0.0357 0.0331 0.0283
v  -0.0359 0.0329 0.0283
v  -0.0359 -0.0331 0.0283
v  -0.0359 0.0329 -0.0283
v  -0.0359 -0.0331 -0.0283
v  0.0359 -0.0331 0.0283
v  0.0359 -0.0331 -0.0283
# 7 vertices

vn -0.0000 -0.0000 1.0000
vn -1.0000 0.0000 -0.0000
vn 0.0000 -1.0000 -0.0000
# 3 vertex normals

vt 0.0502 0.0472 0.0000
vt 0.0100 0.0335 0.0000
vt 0.0100 0.0100 0.0000
vt 0.6559 0.4969 0.0000
vt 0.6559 0.4651 0.0000
vt 0.6794 0.4651 0.0000
vt 0.6794 0.4969 0.0000
vt 0.0716 0.0100 0.0000
vt 0.9900 0.6831 0.0000
vt 0.9900 0.7149 0.0000
vt 0.9284 0.7149 0.0000
vt 0.9284 0.6831 0.0000
# 12 texture coords

g LeftBottom
usemtl 01___Default
s off
f 1/1/1 2/2/1 3/3/1 
f 2/4/2 4/5/2 5/6/2 3/7/2 
f 1/1/1 3/3/1 6/8/1 
f 3/9/3 5/10/3 7/11/3 6/12/3 
# 2 polygons - 2 triangles

#
# object LeftTop
#

v  0.0356 -0.0331 0.0283
v  -0.0360 0.0331 0.0283
v  -0.0360 -0.0330 0.0283
v  -0.0360 0.0331 -0.0283
v  -0.0360 -0.0330 -0.0283
v  0.0360 0.0331 0.0283
v  0.0360 0.0331 -0.0283
# 7 vertices

vn 0.0000 -0.0000 1.0000
vn -1.0000 0.0000 -0.0000
vn -0.0000 1.0000 0.0000
# 3 vertex normals

vt 0.0502 0.5532 0.0000
vt 0.0100 0.5904 0.0000
vt 0.0100 0.5669 0.0000
vt 0.0990 0.4969 0.0000
vt 0.0990 0.4651 0.0000
vt 0.1225 0.4651 0.0000
vt 0.1225 0.4969 0.0000
vt 0.0712 0.6252 0.0000
vt 0.0712 0.6570 0.0000
vt 0.0100 0.6570 0.0000
vt 0.0100 0.6252 0.0000
vt 0.0712 0.5904 0.0000
# 12 texture coords

g LeftTop
usemtl 01___Default
s off
f 8/13/4 9/14/4 10/15/4 
f 9/16/5 11/17/5 12/18/5 10/19/5 
f 13/20/6 14/21/6 11/22/6 9/23/6 
f 13/24/4 9/14/4 8/13/4 
# 2 polygons - 2 triangles

#
# object RightTop
#

v  0.0358 0.0331 0.0283
v  0.0358 0.0331 -0.0283
v  -0.0358 0.0331 -0.0283
v  -0.0358 0.0331 0.0283
v  0.0358 -0.0330 0.0283
v  0.0358 -0.0330 -0.0283
v  -0.0358 -0.0331 0.0283
# 7 vertices

vn 0.0000 1.0000 0.0000
vn 1.0000 -0.0000 0.0000
vn 0.0000 -0.0000 1.0000
vn -0.0000 0.0000 1.0000
# 4 vertex normals

vt 0.9900 0.6252 0.0000
vt 0.9900 0.6570 0.0000
vt 0.9296 0.6570 0.0000
vt 0.9296 0.6252 0.0000
vt 0.6559 0.5374 0.0000
vt 0.6559 0.5056 0.0000
vt 0.6794 0.5056 0.0000
vt 0.6794 0.5374 0.0000
vt 0.9498 0.5532 0.0000
vt 0.9900 0.5669 0.0000
vt 0.9900 0.5904 0.0000
vt 0.9296 0.5904 0.0000
# 12 texture coords

g RightTop
usemtl 01___Default
s off
f 15/25/7 16/26/7 17/27/7 18/28/7 
f 19/29/8 20/30/8 16/31/8 15/32/8 
f 21/33/9 19/34/9 15/35/9 
f 21/33/10 15/35/10 18/36/10 
# 2 polygons - 2 triangles

#
# object Top
#

v  0.5000 -0.0331 0.0283
v  -0.5000 -0.0331 0.0283
v  -0.5000 -0.0331 -0.0283
v  0.5000 -0.0331 -0.0283
v  0.5000 0.0331 0.0283
v  0.5000 0.0331 -0.0283
v  -0.4996 0.0331 -0.0283
v  -0.4996 0.0331 0.0283
# 8 vertices

vn 0.0000 -1.0000 -0.0000
vn -0.0000 1.0000 0.0000
vn -0.0000 0.0000 1.0000
# 3 vertex normals

vt 0.0100 0.7410 0.0000
vt 0.9095 0.7410 0.0000
vt 0.9095 0.7728 0.0000
vt 0.0100 0.7728 0.0000
vt 0.9296 0.6252 0.0000
vt 0.9296 0.6570 0.0000
vt 0.0712 0.6570 0.0000
vt 0.0712 0.6252 0.0000
vt 0.9498 0.5532 0.0000
vt 0.9296 0.5904 0.0000
vt 0.0712 0.5904 0.0000
vt 0.0502 0.5532 0.0000
# 12 texture coords

g Top
usemtl 01___Default
s off
f 22/37/11 23/38/11 24/39/11 25/40/11 
f 26/41/12 27/42/12 28/43/12 29/44/12 
f 22/45/13 26/46/13 29/47/13 23/48/13 
# 3 polygons

#
# object Right
#

v  -0.0358 -0.7500 0.0283
v  -0.0358 0.7500 0.0283
v  -0.0358 0.7500 -0.0283
v  -0.0358 -0.7500 -0.0283
v  0.0358 -0.7500 0.0283
v  0.0358 -0.7500 -0.0283
v  0.0358 0.7500 -0.0283
v  0.0358 0.7500 0.0283
# 8 vertices

vn -1.0000 0.0000 0.0000
vn 1.0000 0.0000 0.0000
vn -0.0000 -0.0000 1.0000
# 3 vertex normals

vt 0.6050 0.4564 0.0000
vt 0.0990 0.4564 0.0000
vt 0.0990 0.4245 0.0000
vt 0.6050 0.4245 0.0000
vt 0.1225 0.5374 0.0000
vt 0.1225 0.5056 0.0000
vt 0.6559 0.5056 0.0000
vt 0.6559 0.5374 0.0000
vt 0.9498 0.0472 0.0000
vt 0.9900 0.0335 0.0000
vt 0.9900 0.5669 0.0000
vt 0.9498 0.5532 0.0000
# 12 texture coords

g Right
usemtl 01___Default
s off
f 30/49/14 31/50/14 32/51/14 33/52/14 
f 34/53/15 35/54/15 36/55/15 37/56/15 
f 30/57/16 34/58/16 37/59/16 31/60/16 
# 3 polygons

#
# object Bottom
#

v  -0.5000 0.0331 0.0283
v  0.5000 0.0331 0.0283
v  0.5000 0.0331 -0.0283
v  -0.5000 0.0331 -0.0283
v  -0.4997 -0.0331 0.0283
v  0.4998 -0.0331 0.0283
v  -0.4997 -0.0331 -0.0283
v  0.4998 -0.0331 -0.0283
# 8 vertices

vn 0.0000 1.0000 0.0000
vn -0.0000 -0.0000 1.0000
vn 0.0000 -1.0000 -0.0000
# 3 vertex normals

vt 0.0100 0.7989 0.0000
vt 0.9095 0.7989 0.0000
vt 0.9095 0.8307 0.0000
vt 0.0100 0.8307 0.0000
vt 0.9498 0.0472 0.0000
vt 0.0502 0.0472 0.0000
vt 0.0716 0.0100 0.0000
vt 0.9284 0.0100 0.0000
vt 0.9284 0.6831 0.0000
vt 0.9284 0.7149 0.0000
vt 0.0716 0.7149 0.0000
vt 0.0716 0.6831 0.0000
# 12 texture coords

g Bottom
usemtl 01___Default
s off
f 38/61/17 39/62/17 40/63/17 41/64/17 
f 39/65/18 38/66/18 42/67/18 43/68/18 
f 42/69/19 44/70/19 45/71/19 43/72/19 
# 3 polygons

#
# object Left
#

v  0.0358 0.7501 0.0283
v  0.0358 -0.7499 0.0283
v  0.0358 -0.7499 -0.0283
v  0.0358 0.7501 -0.0283
v  -0.0358 0.7501 0.0283
v  -0.0358 -0.7501 0.0283
v  -0.0358 0.7501 -0.0283
v  -0.0358 -0.7501 -0.0283
# 8 vertices

vn 1.0000 -0.0000 -0.0000
vn -0.0000 -0.0000 1.0000
vn -1.0000 0.0000 -0.0000
# 3 vertex normals

vt 0.6050 0.4158 0.0000
vt 0.0990 0.4158 0.0000
vt 0.0990 0.3840 0.0000
vt 0.6050 0.3840 0.0000
vt 0.0502 0.0472 0.0000
vt 0.0502 0.5532 0.0000
vt 0.0100 0.5669 0.0000
vt 0.0100 0.0335 0.0000
vt 0.1225 0.4969 0.0000
vt 0.1225 0.4651 0.0000
vt 0.6559 0.4651 0.0000
vt 0.6559 0.4969 0.0000
# 12 texture coords

g Left
usemtl 01___Default
s off
f 46/73/20 47/74/20 48/75/20 49/76/20 
f 47/77/21 46/78/21 50/79/21 51/80/21 
f 50/81/22 52/82/22 53/83/22 51/84/22 
# 3 polygons

#
# object RightBottom
#

v  -0.0357 0.0331 0.0283
v  0.0359 -0.0331 0.0283
v  0.0359 0.0331 0.0283
v  0.0359 -0.0331 -0.0283
v  0.0359 0.0331 -0.0283
v  -0.0359 -0.0331 0.0283
v  -0.0359 -0.0331 -0.0283
# 7 vertices

vn 0.0000 -0.0000 1.0000
vn 1.0000 0.0000 -0.0000
vn -0.0000 -1.0000 -0.0000
# 3 vertex normals

vt 0.9498 0.0472 0.0000
vt 0.9900 0.0100 0.0000
vt 0.9900 0.0335 0.0000
vt 0.0990 0.5374 0.0000
vt 0.0990 0.5056 0.0000
vt 0.1225 0.5056 0.0000
vt 0.1225 0.5374 0.0000
vt 0.9284 0.0100 0.0000
vt 0.0716 0.6831 0.0000
vt 0.0716 0.7149 0.0000
vt 0.0100 0.7149 0.0000
vt 0.0100 0.6831 0.0000
# 12 texture coords

g RightBottom
usemtl 01___Default
s off
f 54/85/23 55/86/23 56/87/23 
f 55/88/24 57/89/24 58/90/24 56/91/24 
f 54/85/23 59/92/23 55/86/23 
f 59/93/25 60/94/25 57/95/25 55/96/25 
# 2 polygons - 2 triangles

