# 3ds Max Wavefront OBJ Exporter v0.97b - (c)2007 guruware
# File Created: 05.01.2017 16:50:07

mtllib neiqiang.mtl

#
# object Line015
#

v  4.6601 2.6255 0.8143
v  4.6601 2.6255 -2.4626
v  4.6601 0.6753 -2.4626
v  4.6601 0.6753 0.8143
# 4 vertices

vn -1.0000 0.0000 -0.0000
# 1 vertex normals

g Line015
usemtl wire_177148027
s 1
f 1//1 2//1 3//1 4//1 
# 1 polygons

#
# object Line016
#

v  3.2693 2.6490 -10.9956
v  -0.0077 2.6490 -10.9956
v  -0.0077 0.6987 -10.9956
v  3.2693 0.6987 -10.9956
# 4 vertices

vn 0.0000 0.0000 1.0000
# 1 vertex normals

g Line016
usemtl wire_153228214
s 1
f 5//2 6//2 7//2 8//2 
# 1 polygons

#
# object Line017
#

v  -0.6086 2.6490 -10.9956
v  -3.8856 2.6490 -10.9956
v  -3.8856 0.6987 -10.9956
v  -0.6086 0.6987 -10.9956
# 4 vertices

vn 0.0000 0.0000 1.0000
# 1 vertex normals

g Line017
usemtl wire_028028177
s 1
f 9//3 10//3 11//3 12//3 
# 1 polygons

#
# object Line018
#

v  -4.8461 2.6327 -4.0851
v  -4.8461 2.6327 -0.3886
v  -4.8461 0.6958 -0.3886
v  -4.8461 0.6958 -4.0851
# 4 vertices

vn 1.0000 0.0000 -0.0000
# 1 vertex normals

g Line018
usemtl wire_028089177
s 1
f 13//4 14//4 15//4 16//4 
# 1 polygons

#
# object Line019
#

v  -4.8461 2.6327 -8.3842
v  -4.8461 2.6327 -4.6877
v  -4.8461 0.6958 -4.6877
v  -4.8461 0.6958 -8.3842
# 4 vertices

vn 1.0000 0.0000 -0.0000
# 1 vertex normals

g Line019
usemtl wire_225198087
s 1
f 17//5 18//5 19//5 20//5 
# 1 polygons

#
# object Line020
#

v  -0.4596 2.6327 2.1605
v  3.2369 2.6327 2.1605
v  3.2369 0.6825 2.1605
v  -0.4596 0.6825 2.1605
# 4 vertices

vn 0.0000 0.0000 -1.0000
# 1 vertex normals

g Line020
usemtl wire_027177088
s 1
f 21//6 22//6 23//6 24//6 
# 1 polygons

#
# object Line021
#

v  -5.1423 2.4109 6.6349
v  1.2528 2.4109 6.6349
v  1.2528 0.1228 6.6349
v  -5.1423 0.1228 6.6349
# 4 vertices

vn 0.0000 0.0000 -1.0000
# 1 vertex normals

g Line021
usemtl wire_228153184
s 1
f 25//7 26//7 27//7 28//7 
# 1 polygons

#
# object Line022
#

v  4.4037 2.2882 3.3169
v  -0.9610 2.2882 3.3169
v  -0.9610 0.0253 3.3169
v  4.4037 0.0253 3.3169
# 4 vertices

vn 0.0000 0.0000 1.0000
# 1 vertex normals

g Line022
usemtl wire_108008136
s 1
f 29//8 30//8 31//8 32//8 
# 1 polygons

#
# object Line023
#

v  4.6601 2.6255 -6.9103
v  4.6601 2.6255 -10.1872
v  4.6601 0.6753 -10.1872
v  4.6601 0.6753 -6.9103
# 4 vertices

vn -1.0000 0.0000 -0.0000
# 1 vertex normals

g Line023
usemtl wire_177148027
s 1
f 33//9 34//9 35//9 36//9 
# 1 polygons

#
# object Line024
#

v  4.6601 2.6255 -2.9801
v  4.6601 2.6255 -6.2570
v  4.6601 0.6753 -6.2570
v  4.6601 0.6753 -2.9801
# 4 vertices

vn -1.0000 0.0000 -0.0000
# 1 vertex normals

g Line024
usemtl wire_177148027
s 1
f 37//10 38//10 39//10 40//10 
# 1 polygons

