# 3ds Max Wavefront OBJ Exporter v0.97b - (c)2007 guruware
# File Created: 11.01.2017 09:26:18

mtllib banzi.mtl

#
# object Object040
#



v  18.2557 3.6983 -8.8379
v  -15.1072 3.6983 -8.8379
v  -15.1072 0.5180 -8.8379
v  18.2557 0.5179 -8.8379
# 4 vertices

vn 0.0000 0.0000 1.0000
# 1 vertex normals

vt 0.5862 0.1752 0.0000
vt -1.1459 0.1752 0.0000
vt -1.1459 0.0100 0.0000
vt 0.5862 0.0100 0.0000
# 4 texture coords

g Object040
usemtl zhangui01
s off
f 1/1/1 2/2/1 3/3/1 4/4/1 
# 1 polygons

#
# object Object041
#

v  18.2410 3.6983 -4.5049
v  18.2410 3.6983 -8.8531
v  18.2410 0.5179 -8.8531
v  18.2410 0.5179 -4.5049


# 4 vertices

vn -1.0000 0.0000 -0.0000
# 1 vertex normals

vt 0.6759 0.0100 0.0000
vt 0.6759 0.2352 0.0000
vt 0.3679 0.2352 0.0000
vt 0.3679 0.0100 0.0000
# 4 texture coords

g Object041
usemtl zhangui01
s off
f 5/5/2 6/6/2 7/7/2 8/8/2 
# 1 polygons

#
# object Object042
#

v  -18.2569 3.6983 -7.6852
v  -18.2569 3.6983 4.7401
v  -18.2569 0.5179 4.7401
v  -18.2569 0.5179 -7.6852

# 4 vertices

vn 1.0000 0.0000 -0.0000
# 1 vertex normals

vt 0.5104 0.5379 0.0000
vt 0.5104 0.6660 0.0000
vt 0.0100 0.6660 0.0000
vt 0.0100 0.5379 0.0000
# 4 texture coords

g Object042
usemtl zhangui01
s off
f 9/9/3 10/10/3 11/11/3 12/12/3 
# 1 polygons

#
# object Object043
#

v  -7.7987 3.6983 4.7221
v  -3.4064 3.6983 4.7221
v  -3.4064 0.5179 4.7221
v  -7.7987 0.5179 4.7221


# 4 vertices

vn 0.0000 0.0000 -1.0000
# 1 vertex normals

vt 0.0100 0.9420 0.0000
vt 0.0100 0.7056 0.0000
vt 0.1811 0.7056 0.0000
vt 0.1811 0.9420 0.0000
# 4 texture coords

g Object043
usemtl zhangui01
s off
f 13/13/4 14/14/4 15/15/4 16/16/4 
# 1 polygons

#
# object Object044
#

v  -3.4064 3.6983 4.7221
v  -3.4064 3.6983 9.4285
v  -3.4064 0.5179 9.4285
v  -3.4064 0.5179 4.7221
# 4 vertices

vn 1.0000 0.0000 -0.0000
# 1 vertex normals

vt 0.2362 0.2399 0.0000
vt 0.4419 0.2399 0.0000
vt 0.4419 0.3789 0.0000
vt 0.2362 0.3789 0.0000
# 4 texture coords

g Object044
usemtl zhangui01
s off
f 17/17/5 18/18/5 19/19/5 20/20/5 
# 1 polygons

#
# object Object045
#

v  -3.4277 3.6983 9.4060
v  13.5415 3.6983 9.4060
v  13.5415 0.5179 9.4060
v  -3.4277 0.5179 9.4060


# 4 vertices

vn 0.0000 0.0000 -1.0000
# 1 vertex normals

vt 1.2037 0.1503 0.0000
vt 0.4553 0.1503 0.0000
vt 0.4553 0.0100 0.0000
vt 1.2037 0.0100 0.0000
# 4 texture coords

g Object045
usemtl zhangui01
s off
f 21/21/6 22/22/6 23/23/6 24/24/6 
# 1 polygons

#
# object Object046
#

v  -0.0464 3.7231 -2.1170
v  -11.1010 3.7231 -2.1170
v  -11.1010 0.5086 -2.1170
v  -0.0464 0.5086 -2.1170


# 4 vertices

vn 0.0000 0.0000 1.0000
# 1 vertex normals

vt 0.0000 0.0000 0.0000
vt 1.0000 0.0000 0.0000
vt 1.0000 1.0000 0.0000
vt 0.0000 1.0000 0.0000
# 4 texture coords

g Object046
usemtl zhangui01
s 1
f 25/25/7 26/26/7 27/27/7 28/28/7 
# 1 polygons

#
# object Object047
#

v  -11.1010 3.7231 -2.1721
v  -0.0464 3.7231 -2.1721
v  -0.0464 0.5086 -2.1721
v  -11.1010 0.5086 -2.1721

# 4 vertices

vn 0.0000 0.0000 -1.0000
# 1 vertex normals

vt 1.0000 1.0000 0.0000
vt 1.0000 0.0000 0.0000
vt 0.0000 0.0000 0.0000
vt 0.0000 1.0000 0.0000
# 4 texture coords

g Object047
usemtl zhangui01
s 1
f 29/29/8 30/30/8 31/31/8 32/32/8 
# 1 polygons

#
# object Object048
#

v  5.4113 3.7429 -8.1414
v  5.4113 3.7429 -2.1681
v  5.4113 0.4344 -2.1681
v  5.4113 0.4344 -8.1414


# 4 vertices

vn 1.0000 0.0000 -0.0000
# 1 vertex normals

vt 0.2438 0.1395 0.0000
vt 0.0100 0.1395 0.0000
vt 0.0100 0.0100 0.0000
vt 0.2438 0.0100 0.0000
# 4 texture coords

g Object048
usemtl zhangui01
s 4
f 33/33/9 34/34/9 35/35/9 36/36/9 
# 1 polygons

#
# object Object049
#


v  5.1800 3.7429 -2.1681
v  5.1800 3.7429 -8.1414
v  5.1800 0.4344 -8.1414
v  5.1800 0.4344 -2.1681


# 4 vertices

vn -1.0000 0.0000 -0.0000
# 1 vertex normals

vt 0.2438 0.4397 0.0000
vt 0.0100 0.4397 0.0000
vt 0.0100 0.3102 0.0000
vt 0.2438 0.3102 0.0000
# 4 texture coords

g Object049
usemtl zhangui01
s 4
f 37/37/10 38/38/10 39/39/10 40/40/10 
# 1 polygons

#
# object Object050
#

v  9.8656 3.6983 3.4879
v  9.8656 3.6983 -3.5846
v  9.8656 0.5179 -3.5846
v  9.8656 0.5179 3.4879
# 4 vertices

vn -1.0000 0.0000 -0.0000
# 1 vertex normals

vt 0.3924 0.0100 0.0000
vt 0.7223 0.0100 0.0000
vt 0.7223 0.1584 0.0000
vt 0.3924 0.1584 0.0000
# 4 texture coords

g Object050
usemtl zhangui01
s off
f 41/41/11 42/42/11 43/43/11 44/44/11 
# 1 polygons

#
# object Plane023
#

v  10.4959 3.0993 -3.1381
v  10.4959 3.0993 4.7055
v  10.4959 0.7962 4.7055
v  10.4959 0.7962 -3.1381

# 4 vertices

vn 1.0000 0.0000 -0.0000
# 1 vertex normals

vt 1.0000 1.0000 0.0000
vt 1.0000 0.0000 0.0000
vt 0.0000 0.0000 0.0000
vt 0.0000 1.0000 0.0000
# 4 texture coords

g Plane023
usemtl zhangui01
s 1
f 45/45/12 46/46/12 47/47/12 48/48/12 
# 1 polygons

#
# object Object052
#

v  -18.2886 3.6983 4.7082
v  -10.8640 3.6983 4.7082
v  -10.8640 0.5179 4.7082
v  -18.2886 0.5179 4.7082


# 4 vertices

vn 0.0000 0.0000 -1.0000
# 1 vertex normals

vt 0.8408 0.3314 0.0000
vt 0.5418 0.3314 0.0000
vt 0.5418 0.2033 0.0000
vt 0.8408 0.2033 0.0000
# 4 texture coords

g Object052
usemtl zhangui01
s off
f 49/49/13 50/50/13 51/51/13 52/52/13 
# 1 polygons

