# 3ds Max Wavefront OBJ Exporter v0.97b - (c)2007 guruware
# File Created: 06.03.2017 16:15:57

mtllib zhangui005.mtl

#
# object 5
#

v  0.6252 0.8573 -8.6562
v  0.6252 0.7621 -8.6562
v  0.6252 0.7621 -8.7927
v  0.6252 0.8573 -8.7927
v  0.6252 0.8573 -6.4690
v  0.6252 0.7621 -6.4690
v  0.6252 1.0503 -8.7927
v  0.6252 1.0503 -8.6562
v  0.5590 0.8573 -8.7927
v  0.5590 0.7621 -8.7927
v  0.5590 0.7621 -8.6562
v  0.5590 0.7621 -6.4690
v  0.5590 1.0503 -8.7927
v  0.5590 1.0503 -8.6562
v  0.5590 0.8573 -8.6562
v  -0.6252 0.7621 -8.6562
v  -0.6252 0.8573 -8.6562
v  -0.6252 0.8573 -8.7927
v  -0.6252 0.7621 -8.7927
v  -0.6252 1.0503 -8.6562
v  -0.6252 1.0503 -8.7927
v  -0.5590 0.8573 -8.7927
v  -0.5590 0.7621 -8.7927
v  -0.5590 0.7621 -8.6562
v  -0.5590 1.0503 -8.7927
v  -0.5590 1.0503 -8.6562
v  -0.5590 0.8573 -8.6562
v  0.5591 0.6152 -8.7553
v  0.5591 0.7741 -8.7553
v  0.5809 0.7741 -8.7679
v  0.5809 0.6152 -8.7679
v  0.5591 0.6152 -8.7301
v  0.5591 0.7741 -8.7301
v  0.5809 0.6152 -8.7175
v  0.5809 0.7741 -8.7175
v  0.6027 0.6152 -8.7301
v  0.6027 0.7741 -8.7301
v  0.6027 0.6152 -8.7553
v  0.6027 0.7741 -8.7553
v  -0.5844 0.6152 -8.7679
v  -0.6063 0.6152 -8.7553
v  -0.6063 0.7741 -8.7553
v  -0.5844 0.7741 -8.7679
v  -0.6063 0.6152 -8.7301
v  -0.6063 0.7741 -8.7301
v  -0.5844 0.6152 -8.7175
v  -0.5844 0.7741 -8.7175
v  -0.5626 0.6152 -8.7301
v  -0.5626 0.7741 -8.7301
v  -0.5626 0.6152 -8.7553
v  -0.5626 0.7741 -8.7553
v  0.6248 0.3349 -8.4729
v  0.6248 0.0002 -8.4729
v  0.6248 0.0000 -8.7927
v  0.6248 0.6222 -8.7927
v  -0.6252 0.0000 -8.7927
v  -0.6252 0.0002 -8.4729
v  -0.6252 0.3349 -8.4729
v  -0.6252 0.6222 -8.7927
v  -0.5115 0.6222 -8.6789
v  0.5110 0.6222 -8.6789
v  -0.5115 0.6222 -6.4499
v  -0.6252 0.6222 -6.3361
v  -0.5115 0.6839 -8.6789
v  0.5110 0.6839 -8.6789
v  -0.4924 0.6949 -8.6374
v  0.4920 0.6949 -8.6374
v  0.5590 0.8573 -6.4690
v  -0.6252 0.8573 -6.4690
v  -0.6252 0.7621 -6.4690
v  -0.5590 0.8573 -6.4690
v  -0.6252 0.3349 -6.6340
v  0.5110 0.6839 -6.4499
v  0.5110 0.6222 -6.4499
v  0.4920 0.6949 -6.4914
v  0.6252 0.8573 -6.3361
v  0.6252 0.7621 -6.3361
v  0.6252 1.0503 -6.4690
v  0.6252 1.0503 -6.3361
v  0.5590 0.8573 -6.3361
v  0.5590 0.7621 -6.3361
v  0.5590 1.0503 -6.4690
v  0.5590 1.0503 -6.3361
v  -0.6252 0.7621 -6.3361
v  -0.6252 0.8573 -6.3361
v  -0.6252 1.0503 -6.3361
v  -0.6252 1.0503 -6.4690
v  -0.5590 0.7621 -6.3361
v  -0.5590 0.8573 -6.3361
v  -0.5590 0.7621 -6.4690
v  -0.5590 1.0503 -6.3361
v  -0.5590 1.0503 -6.4690
v  -0.5844 0.6152 -6.4033
v  -0.6063 0.6152 -6.3907
v  -0.6063 0.7741 -6.3907
v  -0.5844 0.7741 -6.4033
v  -0.6063 0.6152 -6.3654
v  -0.6063 0.7741 -6.3654
v  -0.5844 0.6152 -6.3528
v  -0.5844 0.7741 -6.3528
v  -0.5626 0.7741 -6.3654
v  -0.5626 0.6152 -6.3654
v  -0.5626 0.6152 -6.3907
v  -0.5626 0.7741 -6.3907
v  0.5591 0.6152 -6.3907
v  0.5591 0.7741 -6.3907
v  0.5809 0.7741 -6.4033
v  0.5809 0.6152 -6.4033
v  0.5591 0.6152 -6.3654
v  0.5591 0.7741 -6.3654
v  0.5809 0.6152 -6.3528
v  0.5809 0.7741 -6.3528
v  0.6027 0.6152 -6.3654
v  0.6027 0.7741 -6.3654
v  0.6027 0.6152 -6.3907
v  0.6027 0.7741 -6.3907
v  0.6248 0.3349 -6.6340
v  0.6248 0.6222 -6.3361
v  0.6248 0.0000 -6.3361
v  0.6248 0.0002 -6.6340
v  -0.6252 0.0000 -6.3361
v  -0.6252 0.0002 -6.6340
v  -0.5115 0.6839 -6.4499
v  -0.4924 0.6949 -6.4914
v  0.5952 0.8573 -8.6562
v  0.5952 0.8573 -6.4690
v  0.6040 1.0291 -6.4690
v  0.6040 1.0291 -8.6562
v  -0.6040 1.0291 -6.4690
v  -0.5952 0.8573 -6.4690
v  -0.5952 0.8573 -8.6562
v  -0.6040 1.0291 -8.6562
# 132 vertices

vn 1.0000 0.0000 -0.0000
vn -0.0000 0.0000 -1.0000
vn 0.0000 -1.0000 -0.0000
vn 0.0000 1.0000 -0.0000
vn 0.0000 0.0000 1.0000
vn -1.0000 0.0000 0.0000
vn -0.8660 0.0000 -0.5000
vn -0.8660 0.0000 0.5000
vn 0.8660 0.0000 0.5000
vn 0.8660 0.0000 -0.5000
vn 0.0000 -1.0000 0.0006
vn -0.0000 0.9664 -0.2572
vn 0.5019 0.8649 -0.0000
vn -0.0000 -1.0000 -0.0007
vn 0.0000 0.9664 0.2572
vn -0.5019 0.8649 0.0000
vn -0.9987 0.0511 0.0000
vn 0.9987 0.0511 -0.0000
# 18 vertex normals

vt 0.4848 0.4172 0.0000
vt 0.4848 0.4337 0.0000
vt 0.4611 0.4337 0.0000
vt 0.4611 0.4172 0.0000
vt 0.8650 0.4172 0.0000
vt 0.8650 0.4337 0.0000
vt 0.4611 0.3837 0.0000
vt 0.4848 0.3837 0.0000
vt 0.4572 0.9345 0.0000
vt 0.4687 0.9345 0.0000
vt 0.4687 0.9511 0.0000
vt 0.4572 0.9511 0.0000
vt 0.0337 0.0215 0.0000
vt 0.0100 0.0215 0.0000
vt 0.0100 0.0100 0.0000
vt 0.0337 0.0100 0.0000
vt 0.4139 0.0100 0.0000
vt 0.4139 0.0215 0.0000
vt 0.1544 0.8027 0.0000
vt 0.1544 0.7790 0.0000
vt 0.1659 0.7790 0.0000
vt 0.1659 0.8027 0.0000
vt 0.7105 0.7281 0.0000
vt 0.7105 0.6946 0.0000
vt 0.7220 0.6946 0.0000
vt 0.7220 0.7281 0.0000
vt 0.4687 0.9010 0.0000
vt 0.4572 0.9010 0.0000
vt 0.8248 0.5429 0.0000
vt 0.8248 0.5263 0.0000
vt 0.8485 0.5263 0.0000
vt 0.8485 0.5429 0.0000
vt 0.8248 0.4928 0.0000
vt 0.8485 0.4928 0.0000
vt 0.2514 0.9345 0.0000
vt 0.2629 0.9345 0.0000
vt 0.2629 0.9511 0.0000
vt 0.2514 0.9511 0.0000
vt 0.0100 0.2158 0.0000
vt 0.0337 0.2158 0.0000
vt 0.0337 0.2273 0.0000
vt 0.0100 0.2273 0.0000
vt 0.3602 0.7790 0.0000
vt 0.3717 0.7790 0.0000
vt 0.3717 0.8027 0.0000
vt 0.3602 0.8027 0.0000
vt 0.9163 0.7281 0.0000
vt 0.9163 0.6946 0.0000
vt 0.9278 0.6946 0.0000
vt 0.9278 0.7281 0.0000
vt 0.2514 0.9010 0.0000
vt 0.2629 0.9010 0.0000
vt 0.9163 0.7447 0.0000
vt 0.7220 0.7447 0.0000
vt 0.5686 0.5135 0.0000
vt 0.5962 0.5135 0.0000
vt 0.5962 0.5179 0.0000
vt 0.5686 0.5179 0.0000
vt 0.7861 0.5179 0.0000
vt 0.7861 0.5135 0.0000
vt 0.8137 0.5135 0.0000
vt 0.8137 0.5179 0.0000
vt 0.5329 0.5135 0.0000
vt 0.5605 0.5135 0.0000
vt 0.5605 0.5179 0.0000
vt 0.5329 0.5179 0.0000
vt 0.4892 0.5179 0.0000
vt 0.4616 0.5179 0.0000
vt 0.4616 0.5135 0.0000
vt 0.4892 0.5135 0.0000
vt 0.7187 0.4088 0.0000
vt 0.7187 0.4044 0.0000
vt 0.7463 0.4044 0.0000
vt 0.7463 0.4088 0.0000
vt 0.6338 0.5048 0.0000
vt 0.6614 0.5048 0.0000
vt 0.6614 0.5092 0.0000
vt 0.6338 0.5092 0.0000
vt 0.5725 0.4088 0.0000
vt 0.5725 0.4044 0.0000
vt 0.6001 0.4044 0.0000
vt 0.6001 0.4088 0.0000
vt 0.5368 0.3920 0.0000
vt 0.5645 0.3920 0.0000
vt 0.5645 0.3963 0.0000
vt 0.5368 0.3963 0.0000
vt 0.7820 0.4088 0.0000
vt 0.7543 0.4088 0.0000
vt 0.7543 0.4044 0.0000
vt 0.7820 0.4044 0.0000
vt 0.5249 0.5055 0.0000
vt 0.4973 0.5055 0.0000
vt 0.4973 0.5011 0.0000
vt 0.5249 0.5011 0.0000
vt 0.5012 0.4088 0.0000
vt 0.5012 0.4044 0.0000
vt 0.5288 0.4044 0.0000
vt 0.5288 0.4088 0.0000
vt 0.7504 0.5179 0.0000
vt 0.7504 0.5135 0.0000
vt 0.7781 0.5135 0.0000
vt 0.7781 0.5179 0.0000
vt 0.5167 0.3014 0.0000
vt 0.5167 0.3595 0.0000
vt 0.4611 0.3596 0.0000
vt 0.4611 0.2514 0.0000
vt 0.4370 0.8027 0.0000
vt 0.3814 0.8027 0.0000
vt 0.3814 0.7445 0.0000
vt 0.4370 0.6946 0.0000
vt 0.1588 0.4371 0.0000
vt 0.1588 0.3290 0.0000
vt 0.3761 0.3290 0.0000
vt 0.3761 0.4371 0.0000
vt 0.3935 0.0886 0.0000
vt 0.1762 0.0886 0.0000
vt 0.1762 0.0304 0.0000
vt 0.3935 0.0304 0.0000
vt 0.4611 0.7502 0.0000
vt 0.4611 0.6946 0.0000
vt 0.6783 0.6946 0.0000
vt 0.6783 0.7502 0.0000
vt 0.0100 0.4687 0.0000
vt 0.0100 0.2514 0.0000
vt 0.0298 0.2712 0.0000
vt 0.0298 0.4489 0.0000
vt 0.4172 0.2712 0.0000
vt 0.4370 0.2514 0.0000
vt 0.8272 0.3284 0.0000
vt 0.6494 0.3284 0.0000
vt 0.6494 0.3177 0.0000
vt 0.8272 0.3177 0.0000
vt 0.0100 0.6705 0.0000
vt 0.0100 0.4928 0.0000
vt 0.0172 0.4961 0.0000
vt 0.0172 0.6672 0.0000
vt 0.8729 0.8434 0.0000
vt 0.4928 0.8434 0.0000
vt 0.4928 0.8268 0.0000
vt 0.8729 0.8268 0.0000
vt 0.4928 0.9081 0.0000
vt 0.8729 0.9081 0.0000
vt 0.8729 0.9196 0.0000
vt 0.4928 0.9196 0.0000
vt 0.4446 0.5263 0.0000
vt 0.4446 0.5429 0.0000
vt 0.4928 0.9552 0.0000
vt 0.4928 0.9437 0.0000
vt 0.8729 0.9437 0.0000
vt 0.8729 0.9552 0.0000
vt 0.0100 0.6946 0.0000
vt 0.0618 0.7445 0.0000
vt 0.4611 0.4686 0.0000
vt 0.4611 0.4578 0.0000
vt 0.8485 0.4578 0.0000
vt 0.8485 0.4686 0.0000
vt 0.3902 0.6672 0.0000
vt 0.3974 0.6705 0.0000
vt 0.8881 0.4172 0.0000
vt 0.8881 0.4337 0.0000
vt 0.8650 0.3837 0.0000
vt 0.8881 0.3837 0.0000
vt 0.6824 0.6005 0.0000
vt 0.6824 0.6170 0.0000
vt 0.6709 0.6170 0.0000
vt 0.6709 0.6005 0.0000
vt 0.4370 0.0100 0.0000
vt 0.4370 0.0215 0.0000
vt 0.6098 0.3365 0.0000
vt 0.6213 0.3365 0.0000
vt 0.6213 0.3596 0.0000
vt 0.6098 0.3596 0.0000
vt 0.6709 0.5670 0.0000
vt 0.6824 0.5670 0.0000
vt 0.4687 0.8268 0.0000
vt 0.4687 0.8604 0.0000
vt 0.4572 0.8604 0.0000
vt 0.4572 0.8268 0.0000
vt 0.4215 0.5429 0.0000
vt 0.4215 0.5263 0.0000
vt 0.4215 0.4928 0.0000
vt 0.4446 0.4928 0.0000
vt 0.8767 0.6170 0.0000
vt 0.8767 0.6005 0.0000
vt 0.8882 0.6005 0.0000
vt 0.8882 0.6170 0.0000
vt 0.4139 0.2273 0.0000
vt 0.4139 0.2158 0.0000
vt 0.4370 0.2158 0.0000
vt 0.4370 0.2273 0.0000
vt 0.8157 0.3596 0.0000
vt 0.8157 0.3365 0.0000
vt 0.8272 0.3365 0.0000
vt 0.8272 0.3596 0.0000
vt 0.8767 0.5670 0.0000
vt 0.8882 0.5670 0.0000
vt 0.2629 0.8604 0.0000
vt 0.2514 0.8604 0.0000
vt 0.2514 0.8268 0.0000
vt 0.2629 0.8268 0.0000
vt 0.4572 0.8769 0.0000
vt 0.2629 0.8769 0.0000
vt 0.7543 0.3963 0.0000
vt 0.7543 0.3919 0.0000
vt 0.7820 0.3919 0.0000
vt 0.7820 0.3963 0.0000
vt 0.8256 0.4044 0.0000
vt 0.8533 0.4044 0.0000
vt 0.8533 0.4088 0.0000
vt 0.8256 0.4088 0.0000
vt 0.5368 0.4044 0.0000
vt 0.5645 0.4044 0.0000
vt 0.5645 0.4088 0.0000
vt 0.5368 0.4088 0.0000
vt 0.7068 0.5135 0.0000
vt 0.7068 0.5179 0.0000
vt 0.6791 0.5179 0.0000
vt 0.6791 0.5135 0.0000
vt 0.6081 0.4044 0.0000
vt 0.6358 0.4044 0.0000
vt 0.6358 0.4088 0.0000
vt 0.6081 0.4088 0.0000
vt 0.1584 0.7666 0.0000
vt 0.1860 0.7666 0.0000
vt 0.1860 0.7710 0.0000
vt 0.1584 0.7710 0.0000
vt 0.7148 0.5135 0.0000
vt 0.7424 0.5135 0.0000
vt 0.7424 0.5179 0.0000
vt 0.7148 0.5179 0.0000
vt 0.8176 0.4088 0.0000
vt 0.7900 0.4088 0.0000
vt 0.7900 0.4044 0.0000
vt 0.8176 0.4044 0.0000
vt 0.5249 0.5179 0.0000
vt 0.4973 0.5179 0.0000
vt 0.4973 0.5135 0.0000
vt 0.5249 0.5135 0.0000
vt 0.7424 0.5055 0.0000
vt 0.7148 0.5055 0.0000
vt 0.7148 0.5011 0.0000
vt 0.7424 0.5011 0.0000
vt 0.6734 0.4000 0.0000
vt 0.6734 0.3956 0.0000
vt 0.7010 0.3956 0.0000
vt 0.7010 0.4000 0.0000
vt 0.1464 0.7984 0.0000
vt 0.1464 0.8027 0.0000
vt 0.1188 0.8027 0.0000
vt 0.1188 0.7984 0.0000
vt 0.8363 0.3014 0.0000
vt 0.8881 0.2514 0.0000
vt 0.8881 0.3596 0.0000
vt 0.8363 0.3595 0.0000
vt 0.0100 0.8027 0.0000
vt 0.0618 0.8027 0.0000
vt 0.1762 0.2048 0.0000
vt 0.1762 0.0967 0.0000
vt 0.3935 0.0967 0.0000
vt 0.3935 0.2048 0.0000
vt 0.4215 0.5670 0.0000
vt 0.6388 0.5670 0.0000
vt 0.6388 0.6187 0.0000
vt 0.4215 0.6187 0.0000
vt 0.2273 0.8268 0.0000
vt 0.2273 0.8850 0.0000
vt 0.0100 0.8850 0.0000
vt 0.0100 0.8268 0.0000
vt 0.4370 0.4687 0.0000
vt 0.4172 0.4489 0.0000
vt 0.1940 0.7603 0.0000
vt 0.3717 0.7603 0.0000
vt 0.3717 0.7710 0.0000
vt 0.1940 0.7710 0.0000
vt 0.3974 0.4928 0.0000
vt 0.3902 0.4961 0.0000
vt 0.4928 0.8840 0.0000
vt 0.4928 0.8675 0.0000
vt 0.8729 0.8675 0.0000
vt 0.8729 0.8840 0.0000
vt 0.7807 0.2273 0.0000
vt 0.4611 0.2273 0.0000
vt 0.4611 0.0100 0.0000
vt 0.7807 0.0100 0.0000
vt 0.8802 0.9900 0.0000
vt 0.4928 0.9900 0.0000
vt 0.4928 0.9793 0.0000
vt 0.8802 0.9793 0.0000
vt 1.0000 1.0000 0.0000
vt 0.0000 1.0000 0.0000
vt 0.0000 0.0000 0.0000
vt 1.0000 0.0000 0.0000
# 292 texture coords

g 5
usemtl zhanggui006
s off
f 1/1/1 2/2/1 3/3/1 
f 3/3/1 4/4/1 1/1/1 
f 2/2/1 1/1/1 5/5/1 
f 5/5/1 6/6/1 2/2/1 
f 1/1/1 4/4/1 7/7/1 
f 7/7/1 8/8/1 1/1/1 
f 9/9/2 4/10/2 3/11/2 
f 3/11/2 10/12/2 9/9/2 
f 11/13/3 10/14/3 3/15/3 
f 3/15/3 2/16/3 11/13/3 
f 2/16/3 6/17/3 12/18/3 
f 12/18/3 11/13/3 2/16/3 
f 8/19/4 7/20/4 13/21/4 
f 13/21/4 14/22/4 8/19/4 
f 1/23/5 8/24/5 14/25/5 
f 14/25/5 15/26/5 1/23/5 
f 7/27/2 4/10/2 9/9/2 
f 9/9/2 13/28/2 7/27/2 
f 16/29/6 17/30/6 18/31/6 
f 18/31/6 19/32/6 16/29/6 
f 20/33/6 21/34/6 18/31/6 
f 18/31/6 17/30/6 20/33/6 
f 18/35/2 22/36/2 23/37/2 
f 23/37/2 19/38/2 18/35/2 
f 23/39/3 24/40/3 16/41/3 
f 16/41/3 19/42/3 23/39/3 
f 25/43/4 21/44/4 20/45/4 
f 20/45/4 26/46/4 25/43/4 
f 27/47/5 26/48/5 20/49/5 
f 20/49/5 17/50/5 27/47/5 
f 22/36/2 18/35/2 21/51/2 
f 21/51/2 25/52/2 22/36/2 
f 26/46/4 14/22/4 13/21/4 
f 13/21/4 25/43/4 26/46/4 
f 25/52/2 13/28/2 9/9/2 
f 9/9/2 22/36/2 25/52/2 
f 10/12/2 23/37/2 22/36/2 
f 22/36/2 9/9/2 10/12/2 
f 24/40/3 23/39/3 10/14/3 
f 10/14/3 11/13/3 24/40/3 
f 15/26/5 27/47/5 24/53/5 
f 24/53/5 11/54/5 15/26/5 
f 15/26/5 14/25/5 26/48/5 
f 26/48/5 27/47/5 15/26/5 
f 28/55/7 29/56/7 30/57/2 
f 30/57/2 31/58/2 28/55/7 
f 28/59/7 32/60/8 33/61/8 
f 33/61/8 29/62/7 28/59/7 
f 34/63/5 35/64/5 33/65/8 
f 33/65/8 32/66/8 34/63/5 
f 35/67/5 34/68/5 36/69/9 
f 36/69/9 37/70/9 35/67/5 
f 36/71/9 38/72/10 39/73/10 
f 39/73/10 37/74/9 36/71/9 
f 31/75/2 30/76/2 39/77/10 
f 39/77/10 38/78/10 31/75/2 
f 40/79/2 41/80/7 42/81/7 
f 42/81/7 43/82/2 40/79/2 
f 44/83/8 45/84/8 42/85/7 
f 42/85/7 41/86/7 44/83/8 
f 45/87/8 44/88/8 46/89/5 
f 46/89/5 47/90/5 45/87/8 
f 47/91/5 46/92/5 48/93/9 
f 48/93/9 49/94/9 47/91/5 
f 48/95/9 50/96/10 51/97/10 
f 51/97/10 49/98/9 48/95/9 
f 50/99/10 40/100/2 43/101/2 
f 43/101/2 51/102/10 50/99/10 
f 52/103/1 53/104/1 54/105/1 
f 54/105/1 55/106/1 52/103/1 
f 56/107/6 57/108/6 58/109/6 
f 58/109/6 59/110/6 56/107/6 
f 56/111/2 59/112/2 55/113/2 
f 55/113/2 54/114/2 56/111/2 
f 57/115/5 53/116/5 52/117/5 
f 52/117/5 58/118/5 57/115/5 
f 57/119/11 56/120/11 54/121/11 
f 54/121/11 53/122/11 57/119/11 
f 55/123/4 59/124/4 60/125/4 
f 60/125/4 61/126/4 55/123/4 
f 62/127/4 60/125/4 59/124/4 
f 59/124/4 63/128/4 62/127/4 
f 61/129/2 60/130/2 64/131/2 
f 64/131/2 65/132/2 61/129/2 
f 65/133/12 64/134/12 66/135/12 
f 66/135/12 67/136/12 65/133/12 
f 11/137/6 12/138/6 68/139/6 
f 68/139/6 15/140/6 11/137/6 
f 15/141/4 68/142/4 5/143/4 
f 5/143/4 1/144/4 15/141/4 
f 69/145/6 17/30/6 16/29/6 
f 16/29/6 70/146/6 69/145/6 
f 27/147/4 17/148/4 69/149/4 
f 69/149/4 71/150/4 27/147/4 
f 63/151/6 59/110/6 58/109/6 
f 58/109/6 72/152/6 63/151/6 
f 61/153/1 65/154/1 73/155/1 
f 73/155/1 74/156/1 61/153/1 
f 67/136/13 75/157/13 73/158/13 
f 73/158/13 65/133/13 67/136/13 
f 6/6/1 5/5/1 76/159/1 
f 76/159/1 77/160/1 6/6/1 
f 76/159/1 5/5/1 78/161/1 
f 78/161/1 79/162/1 76/159/1 
f 80/163/5 81/164/5 77/165/5 
f 77/165/5 76/166/5 80/163/5 
f 12/18/3 6/17/3 77/167/3 
f 77/167/3 81/168/3 12/18/3 
f 78/169/4 82/170/4 83/171/4 
f 83/171/4 79/172/4 78/169/4 
f 79/173/5 83/174/5 80/163/5 
f 80/163/5 76/166/5 79/173/5 
f 78/175/2 5/176/2 68/177/2 
f 68/177/2 82/178/2 78/175/2 
f 70/146/6 84/179/6 85/180/6 
f 85/180/6 69/145/6 70/146/6 
f 86/181/6 87/182/6 69/145/6 
f 69/145/6 85/180/6 86/181/6 
f 88/183/5 89/184/5 85/185/5 
f 85/185/5 84/186/5 88/183/5 
f 70/187/3 90/188/3 88/189/3 
f 88/189/3 84/190/3 70/187/3 
f 91/191/4 92/192/4 87/193/4 
f 87/193/4 86/194/4 91/191/4 
f 91/195/5 86/196/5 85/185/5 
f 85/185/5 89/184/5 91/195/5 
f 71/197/2 69/198/2 87/199/2 
f 87/199/2 92/200/2 71/197/2 
f 92/192/4 91/191/4 83/171/4 
f 83/171/4 82/170/4 92/192/4 
f 68/177/2 71/197/2 92/200/2 
f 92/200/2 82/178/2 68/177/2 
f 71/197/2 68/177/2 12/201/2 
f 12/201/2 90/202/2 71/197/2 
f 12/18/3 81/168/3 88/189/3 
f 88/189/3 90/188/3 12/18/3 
f 80/163/5 89/184/5 88/183/5 
f 88/183/5 81/164/5 80/163/5 
f 83/174/5 91/195/5 89/184/5 
f 89/184/5 80/163/5 83/174/5 
f 93/203/2 94/204/7 95/205/7 
f 95/205/7 96/206/2 93/203/2 
f 97/207/8 98/208/8 95/209/7 
f 95/209/7 94/210/7 97/207/8 
f 99/211/5 100/212/5 98/213/8 
f 98/213/8 97/214/8 99/211/5 
f 101/215/9 100/216/5 99/217/5 
f 99/217/5 102/218/9 101/215/9 
f 103/219/10 104/220/10 101/221/9 
f 101/221/9 102/222/9 103/219/10 
f 93/223/2 96/224/2 104/225/10 
f 104/225/10 103/226/10 93/223/2 
f 105/227/7 106/228/7 107/229/2 
f 107/229/2 108/230/2 105/227/7 
f 106/231/7 105/232/7 109/233/8 
f 109/233/8 110/234/8 106/231/7 
f 110/235/8 109/236/8 111/237/5 
f 111/237/5 112/238/5 110/235/8 
f 112/239/5 111/240/5 113/241/9 
f 113/241/9 114/242/9 112/239/5 
f 113/243/9 115/244/10 116/245/10 
f 116/245/10 114/246/9 113/243/9 
f 107/247/2 116/248/10 115/249/10 
f 115/249/10 108/250/2 107/247/2 
f 117/251/1 118/252/1 119/253/1 
f 119/253/1 120/254/1 117/251/1 
f 121/255/6 63/151/6 72/152/6 
f 72/152/6 122/256/6 121/255/6 
f 119/257/5 118/258/5 63/259/5 
f 63/259/5 121/260/5 119/257/5 
f 122/261/14 120/262/14 119/263/14 
f 119/263/14 121/264/14 122/261/14 
f 117/265/2 120/266/2 122/267/2 
f 122/267/2 72/268/2 117/265/2 
f 118/269/4 55/123/4 61/126/4 
f 61/126/4 74/270/4 118/269/4 
f 62/127/4 63/128/4 118/269/4 
f 118/269/4 74/270/4 62/127/4 
f 73/271/5 123/272/5 62/273/5 
f 62/273/5 74/274/5 73/271/5 
f 123/275/15 73/158/15 75/157/15 
f 75/157/15 124/276/15 123/275/15 
f 24/277/1 27/278/1 71/279/1 
f 71/279/1 90/280/1 24/277/1 
f 90/188/3 70/187/3 16/41/3 
f 16/41/3 24/40/3 90/188/3 
f 118/252/1 117/251/1 52/103/1 
f 52/103/1 55/106/1 118/252/1 
f 72/281/3 58/282/3 52/283/3 
f 52/283/3 117/284/3 72/281/3 
f 60/285/6 62/286/6 123/287/6 
f 123/287/6 64/288/6 60/285/6 
f 123/275/16 124/276/16 66/135/16 
f 66/135/16 64/134/16 123/275/16 
f 66/135/4 124/276/4 75/157/4 
f 75/157/4 67/136/4 66/135/4 
usemtl _zhangui006boli
f 8/289/1 78/290/1 5/291/1 
f 5/291/1 1/292/1 8/289/1 
f 20/289/6 17/292/6 69/291/6 
f 69/291/6 87/290/6 20/289/6 
f 87/290/4 78/290/4 8/289/4 
f 8/289/4 20/289/4 87/290/4 
f 125/292/17 126/291/17 127/290/17 
f 127/290/17 128/289/17 125/292/17 
f 129/290/18 130/291/18 131/292/18 
f 131/292/18 132/289/18 129/290/18 
f 129/290/3 132/289/3 128/289/3 
f 128/289/3 127/290/3 129/290/3 
f 5/291/3 126/291/3 125/292/3 
f 125/292/3 1/292/3 5/291/3 
f 128/289/2 8/289/2 1/292/2 
f 1/292/2 125/292/2 128/289/2 
f 126/291/5 5/291/5 78/290/5 
f 78/290/5 127/290/5 126/291/5 
f 129/290/5 87/290/5 69/291/5 
f 69/291/5 130/291/5 129/290/5 
f 132/289/2 131/292/2 17/292/2 
f 17/292/2 20/289/2 132/289/2 
f 131/292/3 130/291/3 69/291/3 
f 69/291/3 17/292/3 131/292/3 
f 129/290/5 127/290/5 78/290/5 
f 78/290/5 87/290/5 129/290/5 
f 8/289/2 128/289/2 132/289/2 
f 132/289/2 20/289/2 8/289/2 
# 224 faces

