# 3ds Max Wavefront OBJ Exporter v0.97b - (c)2007 guruware
# File Created: 14.03.2017 14:57:14

mtllib zhangui006.mtl

#
# object 6
#

v  -0.0014 0.0681 -1.2006
v  -0.0013 0.0681 1.2006
v  -0.0013 0.0000 1.1691
v  -0.0014 0.0000 -1.1691
v  -0.6475 0.0681 0.0000
v  -0.6476 0.0681 -1.2006
v  -0.6476 0.0000 -1.1691
v  -0.6475 0.0000 0.0000
v  -0.6475 0.0681 1.2006
v  -0.6475 0.0000 1.1691
v  -0.0953 0.9949 1.2006
v  -0.0013 0.9949 1.2006
v  -0.0014 0.9949 0.0000
v  -0.0954 0.9949 0.0000
v  -0.6476 0.7942 -1.2006
v  -0.0954 0.7942 -1.2006
v  -0.0014 0.7942 -1.2006
v  -0.6475 0.7942 0.0000
v  -0.6475 0.7942 1.2006
v  -0.0953 0.7942 1.2006
v  -0.0014 0.9949 -1.2006
v  -0.0013 0.7942 1.2006
v  -0.0954 0.9949 -1.2006
v  -0.6476 0.8897 -1.1907
v  -0.6476 0.7991 -1.1907
v  -0.6475 0.7991 1.1906
v  -0.6475 0.8897 1.1906
v  -0.6410 0.8909 1.2006
v  -0.6410 0.7992 1.2006
v  -0.1018 0.8040 1.2006
v  -0.1018 0.9839 1.2006
v  -0.6411 0.8909 -1.2006
v  -0.1019 0.9839 -1.2006
v  -0.1019 0.8040 -1.2006
v  -0.6411 0.7992 -1.2006
v  -0.1018 0.9937 1.1906
v  -0.1019 0.9937 -1.1907
v  -0.6411 0.8958 -1.1907
v  -0.6410 0.8958 1.1906
v  -0.6475 0.8897 1.2006
v  -0.6475 0.7991 1.2006
v  -0.0953 0.8040 1.2006
v  -0.0953 0.9851 1.2006
v  -0.6476 0.7991 -1.2006
v  -0.6476 0.8897 -1.2006
v  -0.0954 0.9851 -1.2006
v  -0.0954 0.8040 -1.2006
v  -0.0953 0.9949 1.1906
v  -0.0954 0.9949 -1.1907
v  -0.6475 0.8946 1.1906
v  -0.6476 0.8946 -1.1907
v  -0.6476 0.7942 -1.1907
v  -0.6475 0.7942 1.1906
v  -0.1018 0.7942 1.2006
v  -0.6410 0.7942 1.2006
v  -0.6410 0.8958 1.2006
v  -0.1018 0.9937 1.2006
v  -0.1019 0.9937 -1.2006
v  -0.6411 0.8958 -1.2006
v  -0.6411 0.7942 -1.2006
v  -0.1019 0.7942 -1.2006
v  -0.6475 0.8946 1.2006
v  -0.6476 0.8946 -1.2006
v  0.0013 0.0681 -1.2006
v  0.0013 0.0000 -1.1691
v  0.0014 0.0000 1.1691
v  0.0014 0.0681 1.2006
v  0.6475 0.0681 0.0000
v  0.6475 0.0000 0.0000
v  0.6475 0.0000 -1.1691
v  0.6475 0.0681 -1.2006
v  0.6476 0.0000 1.1691
v  0.6476 0.0681 1.2006
v  0.0953 0.9949 0.0000
v  0.0013 0.9949 0.0000
v  0.0014 0.9949 1.2006
v  0.0954 0.9949 1.2006
v  0.0013 0.7942 -1.2006
v  0.0953 0.7942 -1.2006
v  0.6475 0.7942 -1.2006
v  0.6475 0.7942 0.0000
v  0.0954 0.7942 1.2006
v  0.6476 0.7942 1.2006
v  0.0014 0.7942 1.2006
v  0.0013 0.9949 -1.2006
v  0.0953 0.9949 -1.2006
v  0.6476 0.7991 1.1906
v  0.6475 0.7991 -1.1907
v  0.6475 0.8897 -1.1907
v  0.6476 0.8897 1.1906
v  0.6411 0.8909 1.2006
v  0.1019 0.9839 1.2006
v  0.1019 0.8040 1.2006
v  0.6411 0.7992 1.2006
v  0.6410 0.8909 -1.2006
v  0.6410 0.7992 -1.2006
v  0.1018 0.8040 -1.2006
v  0.1018 0.9839 -1.2006
v  0.6411 0.8958 1.1906
v  0.6410 0.8958 -1.1907
v  0.1018 0.9937 -1.1907
v  0.1019 0.9937 1.1906
v  0.6476 0.7991 1.2006
v  0.6476 0.8897 1.2006
v  0.0954 0.8040 1.2006
v  0.0954 0.9851 1.2006
v  0.6475 0.8897 -1.2006
v  0.6475 0.7991 -1.2006
v  0.0953 0.8040 -1.2006
v  0.0953 0.9851 -1.2006
v  0.0953 0.9949 -1.1907
v  0.0954 0.9949 1.1906
v  0.6476 0.8946 1.1906
v  0.6475 0.8946 -1.1907
v  0.6475 0.7942 -1.1907
v  0.6476 0.7942 1.1906
v  0.1019 0.7942 1.2006
v  0.6411 0.7942 1.2006
v  0.1019 0.9937 1.2006
v  0.6411 0.8958 1.2006
v  0.6410 0.8958 -1.2006
v  0.1018 0.9937 -1.2006
v  0.6410 0.7942 -1.2006
v  0.1018 0.7942 -1.2006
v  0.6476 0.8946 1.2006
v  0.6475 0.8946 -1.2006
# 126 vertices

vn 1.0000 0.0000 -0.0000
vn -1.0000 0.0000 -0.0000
vn 0.0000 -0.4201 0.9075
vn 0.0000 1.0000 -0.0000
vn 0.0000 0.0000 -1.0000
vn 0.0000 0.0000 1.0000
vn 0.0000 -0.4201 -0.9075
vn -0.1843 0.9829 -0.0000
vn -0.1901 0.9818 -0.0000
vn -0.7714 0.6364 -0.0000
vn 0.1843 0.9829 -0.0000
vn 0.1901 0.9818 -0.0000
vn 0.7714 0.6364 -0.0000
# 13 vertex normals

vt 0.0100 0.1731 0.0000
vt 0.4326 0.1731 0.0000
vt 0.4271 0.1851 0.0000
vt 0.0155 0.1851 0.0000
vt 0.6668 0.1378 0.0000
vt 0.8781 0.1378 0.0000
vt 0.8726 0.1498 0.0000
vt 0.6668 0.1498 0.0000
vt 0.4213 0.8104 0.0000
vt 0.4332 0.8104 0.0000
vt 0.4332 0.9242 0.0000
vt 0.4213 0.9242 0.0000
vt 0.8781 0.6269 0.0000
vt 0.8781 0.6434 0.0000
vt 0.6668 0.6434 0.0000
vt 0.6668 0.6269 0.0000
vt 0.2276 0.8104 0.0000
vt 0.3554 0.8104 0.0000
vt 0.3554 0.9076 0.0000
vt 0.2276 0.9242 0.0000
vt 0.3554 0.9242 0.0000
vt 0.2213 0.6903 0.0000
vt 0.4326 0.6903 0.0000
vt 0.0100 0.7875 0.0000
vt 0.0100 0.6903 0.0000
vt 0.4326 0.7875 0.0000
vt 0.2213 0.0100 0.0000
vt 0.4326 0.0100 0.0000
vt 0.0100 0.0453 0.0000
vt 0.0100 0.0100 0.0000
vt 0.4326 0.0453 0.0000
vt 0.3907 0.9242 0.0000
vt 0.3907 0.9076 0.0000
vt 0.6668 0.5687 0.0000
vt 0.8781 0.5687 0.0000
vt 0.8781 0.6040 0.0000
vt 0.4555 0.6040 0.0000
vt 0.4555 0.5687 0.0000
vt 0.5610 0.8104 0.0000
vt 0.5964 0.8104 0.0000
vt 0.5964 0.8270 0.0000
vt 0.5610 0.8270 0.0000
vt 0.4611 0.1498 0.0000
vt 0.4555 0.1378 0.0000
vt 0.4555 0.6434 0.0000
vt 0.4555 0.6269 0.0000
vt 0.8781 0.0100 0.0000
vt 0.6668 0.0100 0.0000
vt 0.5610 0.9242 0.0000
vt 0.2156 0.8104 0.0000
vt 0.2156 0.9242 0.0000
vt 0.4555 0.0100 0.0000
vt 0.8764 0.6912 0.0000
vt 0.8764 0.7071 0.0000
vt 0.4573 0.7071 0.0000
vt 0.4573 0.6912 0.0000
vt 0.7229 0.9730 0.0000
vt 0.7229 0.9891 0.0000
vt 0.6280 0.9883 0.0000
vt 0.6280 0.9566 0.0000
vt 0.4224 0.9730 0.0000
vt 0.5173 0.9566 0.0000
vt 0.5173 0.9883 0.0000
vt 0.4224 0.9891 0.0000
vt 0.4573 0.2092 0.0000
vt 0.8764 0.2092 0.0000
vt 0.8764 0.3056 0.0000
vt 0.4573 0.3056 0.0000
vt 0.7241 0.9732 0.0000
vt 0.7241 0.9891 0.0000
vt 0.6269 0.9883 0.0000
vt 0.6269 0.9564 0.0000
vt 0.4213 0.9891 0.0000
vt 0.4213 0.9732 0.0000
vt 0.5184 0.9564 0.0000
vt 0.5184 0.9883 0.0000
vt 0.4573 0.2080 0.0000
vt 0.8764 0.2080 0.0000
vt 0.4573 0.3068 0.0000
vt 0.8764 0.3068 0.0000
vt 0.4573 0.6903 0.0000
vt 0.8764 0.6903 0.0000
vt 0.8764 0.7080 0.0000
vt 0.4573 0.7080 0.0000
vt 0.6280 0.9900 0.0000
vt 0.7229 0.9900 0.0000
vt 0.7229 0.9721 0.0000
vt 0.6280 0.9549 0.0000
vt 0.5173 0.9549 0.0000
vt 0.4224 0.9721 0.0000
vt 0.4224 0.9900 0.0000
vt 0.5173 0.9900 0.0000
vt 0.7241 0.9900 0.0000
vt 0.7241 0.9723 0.0000
vt 0.6269 0.9547 0.0000
vt 0.6269 0.9900 0.0000
vt 0.4213 0.9723 0.0000
vt 0.4213 0.9900 0.0000
vt 0.5184 0.9900 0.0000
vt 0.5184 0.9547 0.0000
vt 0.8781 0.6912 0.0000
vt 0.8781 0.7071 0.0000
vt 0.4555 0.7071 0.0000
vt 0.4555 0.6912 0.0000
vt 0.8781 0.2092 0.0000
vt 0.8781 0.3056 0.0000
vt 0.4555 0.3056 0.0000
vt 0.4555 0.2092 0.0000
vt 0.8781 0.2080 0.0000
vt 0.4555 0.2080 0.0000
vt 0.4555 0.3068 0.0000
vt 0.8781 0.3068 0.0000
vt 0.8781 0.6903 0.0000
vt 0.4555 0.6903 0.0000
vt 0.4555 0.7080 0.0000
vt 0.8781 0.7080 0.0000
vt 0.4326 0.3711 0.0000
vt 0.4271 0.3831 0.0000
vt 0.0155 0.3831 0.0000
vt 0.0100 0.3711 0.0000
vt 0.2213 0.5338 0.0000
vt 0.2213 0.5458 0.0000
vt 0.0155 0.5458 0.0000
vt 0.0100 0.5338 0.0000
vt 0.6269 0.9242 0.0000
vt 0.6269 0.8104 0.0000
vt 0.6401 0.8104 0.0000
vt 0.6401 0.9242 0.0000
vt 0.6668 0.7474 0.0000
vt 0.6668 0.7309 0.0000
vt 0.8781 0.7309 0.0000
vt 0.8781 0.7474 0.0000
vt 0.0220 0.8104 0.0000
vt 0.1498 0.8104 0.0000
vt 0.1498 0.8270 0.0000
vt 0.1498 0.9242 0.0000
vt 0.0220 0.9242 0.0000
vt 0.6668 0.5032 0.0000
vt 0.4555 0.4060 0.0000
vt 0.8781 0.4060 0.0000
vt 0.8781 0.5032 0.0000
vt 0.4555 0.5032 0.0000
vt 0.0100 0.2433 0.0000
vt 0.4326 0.2433 0.0000
vt 0.0100 0.2080 0.0000
vt 0.2213 0.2080 0.0000
vt 0.4326 0.2080 0.0000
vt 0.1851 0.8104 0.0000
vt 0.1851 0.8270 0.0000
vt 0.8781 0.3650 0.0000
vt 0.4555 0.3650 0.0000
vt 0.6668 0.3297 0.0000
vt 0.8781 0.3297 0.0000
vt 0.4555 0.3297 0.0000
vt 0.7881 0.9242 0.0000
vt 0.7561 0.9242 0.0000
vt 0.7561 0.9076 0.0000
vt 0.7881 0.9076 0.0000
vt 0.4271 0.5458 0.0000
vt 0.4326 0.5338 0.0000
vt 0.4555 0.7474 0.0000
vt 0.4555 0.7309 0.0000
vt 0.2213 0.4060 0.0000
vt 0.0100 0.4060 0.0000
vt 0.7561 0.8104 0.0000
vt 0.0100 0.9242 0.0000
vt 0.0100 0.8104 0.0000
vt 0.4326 0.4060 0.0000
vt 0.8764 0.5429 0.0000
vt 0.4572 0.5429 0.0000
vt 0.4572 0.5269 0.0000
vt 0.8764 0.5269 0.0000
vt 0.0111 0.9730 0.0000
vt 0.1060 0.9566 0.0000
vt 0.1060 0.9883 0.0000
vt 0.0111 0.9891 0.0000
vt 0.3117 0.9730 0.0000
vt 0.3117 0.9891 0.0000
vt 0.2168 0.9883 0.0000
vt 0.2168 0.9566 0.0000
vt 0.4309 0.6663 0.0000
vt 0.0117 0.6663 0.0000
vt 0.0117 0.5698 0.0000
vt 0.4309 0.5698 0.0000
vt 0.0100 0.9891 0.0000
vt 0.0100 0.9732 0.0000
vt 0.1072 0.9883 0.0000
vt 0.1072 0.9564 0.0000
vt 0.3128 0.9732 0.0000
vt 0.3128 0.9891 0.0000
vt 0.2156 0.9883 0.0000
vt 0.2156 0.9564 0.0000
vt 0.0117 0.5687 0.0000
vt 0.4309 0.5687 0.0000
vt 0.4309 0.6674 0.0000
vt 0.0117 0.6674 0.0000
vt 0.8764 0.5261 0.0000
vt 0.4572 0.5261 0.0000
vt 0.4572 0.5437 0.0000
vt 0.8764 0.5437 0.0000
vt 0.1060 0.9900 0.0000
vt 0.0111 0.9900 0.0000
vt 0.1060 0.9549 0.0000
vt 0.0111 0.9721 0.0000
vt 0.3117 0.9721 0.0000
vt 0.2168 0.9549 0.0000
vt 0.3117 0.9900 0.0000
vt 0.2168 0.9900 0.0000
vt 0.0100 0.9900 0.0000
vt 0.0100 0.9723 0.0000
vt 0.1072 0.9547 0.0000
vt 0.1072 0.9900 0.0000
vt 0.3128 0.9723 0.0000
vt 0.3128 0.9900 0.0000
vt 0.2156 0.9900 0.0000
vt 0.2156 0.9547 0.0000
vt 0.4555 0.5269 0.0000
vt 0.4555 0.5429 0.0000
vt 0.8781 0.5269 0.0000
vt 0.8781 0.5429 0.0000
vt 0.0100 0.6663 0.0000
vt 0.0100 0.5698 0.0000
vt 0.4326 0.5698 0.0000
vt 0.4326 0.6663 0.0000
vt 0.0100 0.5687 0.0000
vt 0.4326 0.5687 0.0000
vt 0.4326 0.6674 0.0000
vt 0.0100 0.6674 0.0000
vt 0.4555 0.5261 0.0000
vt 0.8781 0.5261 0.0000
vt 0.8781 0.5437 0.0000
vt 0.4555 0.5437 0.0000
# 232 texture coords

g 6
usemtl zhangui001
s off
f 1/1/1 2/2/1 3/3/1 
f 3/3/1 4/4/1 1/1/1 
f 5/5/2 6/6/2 7/7/2 
f 7/7/2 8/8/2 5/5/2 
f 3/9/3 2/10/3 9/11/3 
f 9/11/3 10/12/3 3/9/3 
f 11/13/4 12/14/4 13/15/4 
f 13/15/4 14/16/4 11/13/4 
f 6/17/5 15/18/5 16/19/5 
f 16/19/5 1/20/5 6/17/5 
f 1/20/5 16/19/5 17/21/5 
f 18/22/4 19/23/4 16/24/4 
f 16/24/4 15/25/4 18/22/4 
f 16/24/4 19/23/4 20/26/4 
f 13/27/1 12/28/1 17/29/1 
f 17/29/1 21/30/1 13/27/1 
f 17/29/1 12/28/1 22/31/1 
f 22/31/1 2/2/1 17/29/1 
f 17/29/1 2/2/1 1/1/1 
f 21/32/5 17/21/5 16/19/5 
f 16/19/5 23/33/5 21/32/5 
f 14/34/2 23/35/2 16/36/2 
f 16/36/2 20/37/2 14/34/2 
f 14/34/2 20/37/2 11/38/2 
f 22/39/6 12/40/6 11/41/6 
f 11/41/6 20/42/6 22/39/6 
f 10/43/2 9/44/2 5/5/2 
f 5/5/2 8/8/2 10/43/2 
f 21/45/4 23/46/4 14/16/4 
f 14/16/4 13/15/4 21/45/4 
f 15/47/2 6/6/2 5/5/2 
f 5/5/2 18/48/2 15/47/2 
f 2/10/6 22/39/6 20/42/6 
f 20/42/6 19/49/6 2/10/6 
f 2/10/6 19/49/6 9/11/6 
f 7/50/7 6/17/7 1/20/7 
f 1/20/7 4/51/7 7/50/7 
f 19/52/2 18/48/2 5/5/2 
f 5/5/2 9/44/2 19/52/2 
usemtl _zhangui001Material__12
f 24/53/2 25/54/2 26/55/2 
f 26/55/2 27/56/2 24/53/2 
f 28/57/6 29/58/6 30/59/6 
f 30/59/6 31/60/6 28/57/6 
f 32/61/5 33/62/5 34/63/5 
f 34/63/5 35/64/5 32/61/5 
f 36/65/8 37/66/8 38/67/8 
f 38/67/8 39/68/8 36/65/8 
usemtl zhangui001
f 29/58/6 28/57/6 40/69/6 
f 40/69/6 41/70/6 29/58/6 
f 42/71/6 43/72/6 31/60/6 
f 31/60/6 30/59/6 42/71/6 
f 35/64/5 44/73/5 45/74/5 
f 45/74/5 32/61/5 35/64/5 
f 33/62/5 46/75/5 47/76/5 
f 47/76/5 34/63/5 33/62/5 
f 48/77/9 49/78/9 37/66/8 
f 37/66/8 36/65/8 48/77/9 
f 50/79/10 39/68/8 38/67/8 
f 38/67/8 51/80/10 50/79/10 
f 27/56/2 50/81/10 51/82/10 
f 51/82/10 24/53/2 27/56/2 
f 26/55/2 25/54/2 52/83/2 
f 52/83/2 53/84/2 26/55/2 
f 54/85/6 30/59/6 29/58/6 
f 29/58/6 55/86/6 54/85/6 
f 56/87/6 28/57/6 31/60/6 
f 31/60/6 57/88/6 56/87/6 
f 58/89/5 33/62/5 32/61/5 
f 32/61/5 59/90/5 58/89/5 
f 60/91/5 35/64/5 34/63/5 
f 34/63/5 61/92/5 60/91/5 
f 55/86/6 29/58/6 41/70/6 
f 41/70/6 19/93/6 55/86/6 
f 40/69/6 28/57/6 56/87/6 
f 56/87/6 62/94/6 40/69/6 
f 31/60/6 43/72/6 11/95/6 
f 11/95/6 57/88/6 31/60/6 
f 30/59/6 54/85/6 20/96/6 
f 20/96/6 42/71/6 30/59/6 
f 45/74/5 63/97/5 59/90/5 
f 59/90/5 32/61/5 45/74/5 
f 35/64/5 60/91/5 15/98/5 
f 15/98/5 44/73/5 35/64/5 
f 47/76/5 16/99/5 61/92/5 
f 61/92/5 34/63/5 47/76/5 
f 46/75/5 33/62/5 58/89/5 
f 58/89/5 23/100/5 46/75/5 
f 24/53/2 45/101/2 44/102/2 
f 44/102/2 25/54/2 24/53/2 
f 41/103/2 40/104/2 27/56/2 
f 27/56/2 26/55/2 41/103/2 
f 58/105/8 59/106/8 38/67/8 
f 38/67/8 37/66/8 58/105/8 
f 39/68/8 56/107/8 57/108/8 
f 57/108/8 36/65/8 39/68/8 
f 49/78/9 23/109/9 58/105/8 
f 58/105/8 37/66/8 49/78/9 
f 11/110/9 48/77/9 36/65/8 
f 36/65/8 57/108/8 11/110/9 
f 50/79/10 62/111/10 56/107/8 
f 56/107/8 39/68/8 50/79/10 
f 59/106/8 63/112/10 51/80/10 
f 51/80/10 38/67/8 59/106/8 
f 63/113/10 45/101/2 24/53/2 
f 24/53/2 51/82/10 63/113/10 
f 62/114/10 50/81/10 27/56/2 
f 27/56/2 40/104/2 62/114/10 
f 19/115/2 41/103/2 26/55/2 
f 26/55/2 53/84/2 19/115/2 
f 25/54/2 44/102/2 15/116/2 
f 15/116/2 52/83/2 25/54/2 
f 64/117/2 65/118/2 66/119/2 
f 66/119/2 67/120/2 64/117/2 
f 68/121/1 69/122/1 70/123/1 
f 70/123/1 71/124/1 68/121/1 
f 66/125/3 72/126/3 73/127/3 
f 73/127/3 67/128/3 66/125/3 
f 74/129/4 75/130/4 76/131/4 
f 76/131/4 77/132/4 74/129/4 
f 64/133/5 78/134/5 79/135/5 
f 79/135/5 80/136/5 64/133/5 
f 64/133/5 80/136/5 71/137/5 
f 81/138/4 79/139/4 82/140/4 
f 82/140/4 83/141/4 81/138/4 
f 79/139/4 81/138/4 80/142/4 
f 64/117/2 67/120/2 84/143/2 
f 84/143/2 78/144/2 64/117/2 
f 84/143/2 76/145/2 75/146/2 
f 75/146/2 78/144/2 84/143/2 
f 78/144/2 75/146/2 85/147/2 
f 85/148/5 86/149/5 79/135/5 
f 79/135/5 78/134/5 85/148/5 
f 82/150/1 79/151/1 74/152/1 
f 74/152/1 77/153/1 82/150/1 
f 74/152/1 79/151/1 86/154/1 
f 76/155/6 84/156/6 82/157/6 
f 82/157/6 77/158/6 76/155/6 
f 72/159/1 69/122/1 68/121/1 
f 68/121/1 73/160/1 72/159/1 
f 86/161/4 85/162/4 75/130/4 
f 75/130/4 74/129/4 86/161/4 
f 81/163/1 68/121/1 71/124/1 
f 71/124/1 80/164/1 81/163/1 
f 82/157/6 67/128/6 73/127/6 
f 73/127/6 83/165/6 82/157/6 
f 67/128/6 82/157/6 84/156/6 
f 71/137/7 70/166/7 65/167/7 
f 65/167/7 64/133/7 71/137/7 
f 83/168/1 73/160/1 68/121/1 
f 68/121/1 81/163/1 83/168/1 
usemtl _zhangui001Material__12
f 87/169/1 88/170/1 89/171/1 
f 89/171/1 90/172/1 87/169/1 
f 91/173/6 92/174/6 93/175/6 
f 93/175/6 94/176/6 91/173/6 
f 95/177/5 96/178/5 97/179/5 
f 97/179/5 98/180/5 95/177/5 
f 99/181/11 100/182/11 101/183/11 
f 101/183/11 102/184/11 99/181/11 
usemtl zhangui001
f 94/176/6 103/185/6 104/186/6 
f 104/186/6 91/173/6 94/176/6 
f 105/187/6 93/175/6 92/174/6 
f 92/174/6 106/188/6 105/187/6 
f 107/189/5 108/190/5 96/178/5 
f 96/178/5 95/177/5 107/189/5 
f 98/180/5 97/179/5 109/191/5 
f 109/191/5 110/192/5 98/180/5 
f 102/184/11 101/183/11 111/193/12 
f 111/193/12 112/194/12 102/184/11 
f 113/195/13 114/196/13 100/182/11 
f 100/182/11 99/181/11 113/195/13 
f 113/197/13 90/172/1 89/171/1 
f 89/171/1 114/198/13 113/197/13 
f 115/199/1 88/170/1 87/169/1 
f 87/169/1 116/200/1 115/199/1 
f 94/176/6 93/175/6 117/201/6 
f 117/201/6 118/202/6 94/176/6 
f 119/203/6 92/174/6 91/173/6 
f 91/173/6 120/204/6 119/203/6 
f 121/205/5 95/177/5 98/180/5 
f 98/180/5 122/206/5 121/205/5 
f 96/178/5 123/207/5 124/208/5 
f 124/208/5 97/179/5 96/178/5 
f 103/185/6 94/176/6 118/202/6 
f 118/202/6 83/209/6 103/185/6 
f 125/210/6 120/204/6 91/173/6 
f 91/173/6 104/186/6 125/210/6 
f 106/188/6 92/174/6 119/203/6 
f 119/203/6 77/211/6 106/188/6 
f 117/201/6 93/175/6 105/187/6 
f 105/187/6 82/212/6 117/201/6 
f 107/189/5 95/177/5 121/205/5 
f 121/205/5 126/213/5 107/189/5 
f 80/214/5 123/207/5 96/178/5 
f 96/178/5 108/190/5 80/214/5 
f 124/208/5 79/215/5 109/191/5 
f 109/191/5 97/179/5 124/208/5 
f 98/180/5 110/192/5 86/216/5 
f 86/216/5 122/206/5 98/180/5 
f 107/217/1 89/171/1 88/170/1 
f 88/170/1 108/218/1 107/217/1 
f 87/169/1 90/172/1 104/219/1 
f 104/219/1 103/220/1 87/169/1 
f 121/221/11 122/222/11 101/183/11 
f 101/183/11 100/182/11 121/221/11 
f 119/223/11 120/224/11 99/181/11 
f 99/181/11 102/184/11 119/223/11 
f 111/193/12 101/183/11 122/222/11 
f 122/222/11 86/225/12 111/193/12 
f 112/194/12 77/226/12 119/223/11 
f 119/223/11 102/184/11 112/194/12 
f 99/181/11 120/224/11 125/227/13 
f 125/227/13 113/195/13 99/181/11 
f 126/228/13 121/221/11 100/182/11 
f 100/182/11 114/196/13 126/228/13 
f 114/198/13 89/171/1 107/217/1 
f 107/217/1 126/229/13 114/198/13 
f 90/172/1 113/197/13 125/230/13 
f 125/230/13 104/219/1 90/172/1 
f 116/200/1 87/169/1 103/220/1 
f 103/220/1 83/231/1 116/200/1 
f 88/170/1 115/199/1 80/232/1 
f 80/232/1 108/218/1 88/170/1 
# 222 faces

